<?xml version="1.0" standalone="no"?>
<!DOCTYPE svg PUBLIC "-//W3C//DTD SVG 1.1//EN" "http://www.w3.org/Graphics/SVG/1.1/DTD/svg11.dtd" >
<svg xmlns="http://www.w3.org/2000/svg" xmlns:xlink="http://www.w3.org/1999/xlink" version="1.1">
<metadata></metadata>
<defs>
<font id="anselm_sans_mediumitalic" horiz-adv-x="1136" >
<font-face units-per-em="2048" ascent="1638" descent="-410" />
<missing-glyph horiz-adv-x="464" />
<glyph unicode="&#x28;C&#x29;" horiz-adv-x="1591" d="M152 539q0 135 44.5 272t126.5 255t188.5 210.5t240 145.5t272.5 53q246 0 389 -157t143 -409q0 -172 -70 -343.5t-185.5 -303t-275.5 -213.5t-329 -82q-163 0 -287.5 74t-190.5 203.5t-66 294.5zM340 588q0 -199 109 -324t290 -125q120 0 236.5 63.5t201.5 166 t137 236.5t52 269q0 195 -103 312t-284 117q-163 0 -311.5 -101t-238 -267t-89.5 -347zM483 600q0 144 74.5 278.5t198.5 218t260 83.5q92 0 162 -39q-19 -97 -45 -209q-64 45 -150 45q-116 0 -195 -93t-79 -222q0 -71 36.5 -114.5t108.5 -43.5q38 0 88 16q8 -9 17.5 -17 t21 -15t18 -11t20 -11.5t15.5 -8.5l-8 -47q-46 -51 -115.5 -80t-144.5 -29q-132 0 -207.5 80.5t-75.5 218.5z" />
<glyph unicode="&#x28;R&#x29;" horiz-adv-x="1081" d="M219 893q0 144 72.5 278.5t198.5 219t270 84.5q157 0 245.5 -96t88.5 -253q0 -108 -42.5 -215t-114 -190t-172.5 -134.5t-210 -51.5q-154 0 -245 99.5t-91 258.5zM346 909q0 -118 63.5 -187t176.5 -69q88 0 159 43q-20 75 -53.5 139t-60.5 93l-35 6l-45 -197h-113 q49 236 115 537h180q70 0 105.5 -34t35.5 -87q0 -11 -4 -35q-13 -53 -47 -92t-88 -53q77 -90 105 -199q59 61 94 151t35 177q0 117 -63 187.5t-177 70.5q-105 0 -193.5 -63.5t-139 -167t-50.5 -220.5zM618 1032q16 -2 31 -2q99 0 99 88q0 53 -68 53h-31z" />
<glyph unicode="&#x2e;&#x2e;&#x2e;" horiz-adv-x="2179" d="M170 135q15 70 61.5 113t110.5 43q63 0 93.5 -42.5t15.5 -109.5q-15 -75 -65.5 -120.5t-115.5 -45.5q-60 0 -87.5 43.5t-12.5 118.5zM885 135q15 70 62 113t110 43t93 -42t15 -110q-17 -76 -65 -121t-113 -45q-62 0 -89.5 43.5t-12.5 118.5zM1599 135q15 69 62.5 112.5 t110.5 43.5t93 -42t15 -110q-15 -76 -64.5 -121t-115.5 -45q-60 0 -88 44t-13 118z" />
<glyph unicode="&#x28;TM&#x29;" horiz-adv-x="1345" d="M236 1290l30 144h445l-31 -144q-44 4 -148 8q-50 -204 -88 -374h-135l82 374q-106 -4 -155 -8zM670 924q64 232 129 510h192q38 -202 53 -295q128 204 177 295h190q-42 -211 -88 -510h-137q50 277 59 333q-52 -87 -184 -299q-28 -16 -119 -16l-55 318l-84 -336h-133z" />
<glyph unicode="&#xfb01;" horiz-adv-x="1128" d="M8 -465l264 1274h-161l41 190h159l21 97q8 40 28 82q62 188 201 282t322 94q162 0 295 -55l-56 -246q-138 72 -282 72q-106 0 -172 -59.5t-99 -192.5l-18 -74h315q135 5 252 21q-39 -127 -112.5 -446.5t-124.5 -573.5h-236q26 127 83.5 397.5t86.5 411.5h-307 q-51 -223 -139.5 -645t-128.5 -629h-232z" />
<glyph unicode="&#xfb02;" horiz-adv-x="1124" d="M8 -465l264 1274h-161l41 190h161l27 127q38 185 164 306.5t301 121.5q129 0 221 -57q42 24 99.5 39.5t103.5 15.5q-102 -390 -346 -1552h-236l277 1315q-72 20 -119 20q-175 0 -227 -233l-23 -103h170l-41 -190h-174q-44 -181 -134.5 -614.5t-133.5 -659.5h-234z" />
<glyph unicode="&#xfb03;" horiz-adv-x="1673" d="M8 -465l264 1274h-161l41 190h161l27 127q41 194 175 311t308 117q43 0 84 -6l-47 -223q-31 8 -74 8q-80 0 -130.5 -54.5t-77.5 -176.5l-23 -103h303l21 97q49 232 196.5 345t351.5 113q157 0 297 -55l-57 -246q-135 72 -283 72q-213 0 -270 -252l-16 -74h315 q132 5 250 21q-39 -127 -111.5 -444.5t-124.5 -575.5h-237l172 809h-309q-54 -235 -143 -661t-124 -613h-233l264 1274h-307q-45 -184 -137 -620.5t-133 -653.5h-232z" />
<glyph unicode="&#xfb04;" horiz-adv-x="1669" d="M8 -465l264 1274h-161l41 190h161l27 127q41 194 175 311t308 117q43 0 84 -6l-47 -223q-31 8 -74 8q-80 0 -130.5 -54.5t-77.5 -176.5l-23 -103h303l27 127q38 185 164 306.5t301 121.5q129 0 221 -57q42 24 99.5 39.5t103.5 15.5q-102 -380 -347 -1552h-237 q84 392 278 1315q-72 20 -118 20q-79 0 -141.5 -61t-86.5 -172l-22 -103h170l-41 -190h-174q-44 -183 -135.5 -618t-133.5 -656h-233l264 1274h-307q-45 -184 -137 -620.5t-133 -653.5h-232z" />
<glyph horiz-adv-x="0" />
<glyph horiz-adv-x="682" />
<glyph unicode=" "  horiz-adv-x="464" />
<glyph unicode="&#x09;" horiz-adv-x="464" />
<glyph unicode="&#xa0;" horiz-adv-x="464" />
<glyph unicode="!" horiz-adv-x="684" d="M129 135q15 70 62 113t110 43t93.5 -42.5t15.5 -109.5q-15 -76 -64.5 -121t-114.5 -45q-62 0 -89.5 43.5t-12.5 118.5zM256 440l190 1114h250l-293 -1114h-147z" />
<glyph unicode="&#x22;" horiz-adv-x="776" d="M211 936l125 539h217l-199 -539h-143zM543 936l123 539h217l-199 -539h-141z" />
<glyph unicode="#" d="M25 389l41 189h198l55 264h-198l39 184h200l82 391h205l-82 -391h203l82 391h201l-82 -391h200l-39 -184h-200l-56 -264h201l-43 -189h-201l-79 -389h-201l80 389h-203l-82 -389h-205l82 389h-198zM469 578h203l55 264h-203z" />
<glyph unicode="$" d="M84 127l39 172q124 -70 332 -76l84 393q-45 34 -76 59.5t-67 62t-57 70.5t-35.5 78t-14.5 91q0 176 115 295t307 155l47 220h123l-43 -209q130 -3 229 -39l-57 -266q-90 62 -222 71l-81 -377q57 -43 93.5 -76.5t72 -78t52.5 -95.5t17 -110q0 -181 -111.5 -303 t-298.5 -156l-51 -246h-125l52 240q-107 6 -192 39.5t-132 85.5zM514 1047q0 -86 84 -152l66 305q-66 -6 -108 -45.5t-42 -107.5zM580 233q59 16 99 62t40 115q0 78 -72 141z" />
<glyph unicode="%" horiz-adv-x="1548" d="M43 0l1241 1434h238l-1241 -1434h-238zM129 995q15 120 69.5 226.5t143.5 175.5t190 69q119 0 185 -92t45 -252q-15 -121 -70 -230t-145 -180t-191 -71q-118 0 -183 95t-44 259zM319 995q-8 -77 14 -122.5t66 -45.5q49 0 88 50.5t58.5 114t25.5 126.5q8 74 -12.5 117 t-64.5 43q-51 0 -91 -48.5t-59 -109.5t-25 -125zM821 330q15 118 69.5 225t144 176.5t190.5 69.5q118 0 184 -92.5t45 -253.5q-16 -120 -71 -228.5t-144.5 -180t-189.5 -71.5q-120 0 -185.5 95t-42.5 260zM1012 330q-7 -78 14.5 -123t65.5 -45q49 0 88 50.5t58.5 114 t25.5 126.5q8 74 -13.5 116.5t-66.5 42.5q-50 0 -89 -48t-58 -109.5t-25 -124.5z" />
<glyph unicode="&#x26;" horiz-adv-x="1617" d="M92 647q0 125 31.5 245t95 225.5t151 185.5t207.5 126t257 46q146 0 221 -73t75 -183q0 -96 -47.5 -187.5t-138 -171.5t-238 -140.5t-333.5 -88.5q11 -83 38.5 -155t74 -133.5t120.5 -97.5t168 -36q148 0 227.5 70.5t79.5 169.5q0 47 -20.5 93t-59.5 79l54 217h587 l-47 -228l-348 15q66 -106 66 -209q0 -86 -40.5 -166t-112.5 -143.5t-182.5 -101.5t-240.5 -38q-132 0 -240.5 36.5t-182.5 99.5t-125 150t-74 185.5t-23 208.5zM365 825q235 36 365 123.5t130 181.5q0 49 -28.5 80t-86.5 31q-149 0 -256 -118.5t-124 -297.5z" />
<glyph unicode="'" horiz-adv-x="450" d="M213 936l123 539h219l-201 -539h-141z" />
<glyph unicode="(" horiz-adv-x="899" d="M70 129q0 285 74.5 544.5t207.5 464t314 358.5t395 243l65 -154q-181 -80 -332.5 -230.5t-253.5 -341.5t-158 -414.5t-56 -451.5q0 -502 342 -686l-129 -153q-469 224 -469 821z" />
<glyph unicode=")" horiz-adv-x="899" d="M-203 -535q167 74 307.5 209.5t236.5 306t155.5 364t78.5 394.5q37 311 -44.5 528.5t-278.5 321.5l131 150q259 -123 378 -375.5t70 -638.5q-53 -496 -304.5 -866t-663.5 -551z" />
<glyph unicode="*" horiz-adv-x="892" d="M195 1090q56 123 108 206q39 -24 116 -73t116 -72l24 324q58 4 82 4q66 0 127 -6q-54 -147 -121 -320l295 139q24 -115 27 -207l-310 -47q157 -216 164 -227q-104 -74 -200 -125l-74 281l-197 -283q-70 52 -141 129q132 111 264 225z" />
<glyph unicode="+" d="M90 457l47 219h352l84 395h203l-82 -395h350l-47 -219h-352l-82 -394h-205l84 394h-352z" />
<glyph unicode="," horiz-adv-x="534" d="M-49 -336q147 304 215 559h260q-128 -305 -317 -592z" />
<glyph unicode="-" horiz-adv-x="669" d="M109 444l51 242h440l-51 -242h-440z" />
<glyph unicode="." horiz-adv-x="583" d="M80 135q15 70 62 113t110 43t93 -42t15 -110q-15 -76 -64.5 -121t-115.5 -45q-60 0 -87.5 43.5t-12.5 118.5z" />
<glyph unicode="/" horiz-adv-x="829" d="M-389 -614l1370 2168h242l-1370 -2168h-242z" />
<glyph unicode="0" d="M121 451q0 178 51 361t136 330t207 240t253 93q152 0 240 -122.5t88 -340.5q0 -179 -53 -367t-140.5 -338t-210 -246t-250.5 -96q-148 0 -234.5 131t-86.5 355zM365 426q0 -225 131 -225q88 0 173 143t134 331.5t49 338.5q0 221 -137 221q-69 0 -136 -87.5t-112.5 -214 t-73.5 -264.5t-28 -243z" />
<glyph unicode="1" d="M154 0l43 219h237l201 942l-342 -121l53 254l619 205q-113 -418 -297 -1280h217l-45 -219h-686z" />
<glyph unicode="2" d="M-14 98q152 112 257.5 195.5t202 168t156.5 152.5t105 139t64.5 138.5t19.5 140.5q0 95 -54.5 148t-154.5 53q-126 0 -258 -57l57 260q144 39 307 39q177 0 281 -92t104 -250q0 -426 -602 -893q270 -4 461 14l-94 -254h-842z" />
<glyph unicode="3" d="M78 12l43 195q85 -33 198 -33q68 0 135 22.5t123 62.5t90.5 104t34.5 139q0 89 -54.5 142.5t-143.5 53.5q-94 0 -162 -24l-31 117q98 63 228.5 184.5t234.5 238.5q-121 -2 -452 -16l79 236h756l17 -82q-99 -120 -231.5 -251.5t-242.5 -223.5q135 -11 205 -102t70 -218 q0 -123 -54 -233.5t-143.5 -188t-209.5 -123t-249 -45.5t-241 45z" />
<glyph unicode="4" d="M63 545q155 213 368 461.5t396 431.5q15 15 54.5 23.5t73.5 10.5t102 3l-180 -842h196l-69 -232h-177l-84 -401h-221l84 401h-530zM348 633h307l105 479q-100 -99 -216 -233t-196 -246z" />
<glyph unicode="5" d="M59 -10l43 207q79 -23 179 -23q77 0 146.5 18.5t127.5 56.5t92.5 102.5t34.5 148.5q0 101 -75.5 161t-223.5 60q-78 0 -147 -16l235 729h653l-82 -236h-424l-92 -270q195 -6 310.5 -103.5t115.5 -255.5q0 -180 -95.5 -319t-253.5 -212t-349 -73q-109 0 -195 25z" />
<glyph unicode="6" d="M115 365q0 192 70.5 378.5t192.5 336.5t297 256t374 139l32 -209q-183 -34 -349 -153.5t-251 -264.5q121 72 256 72t208 -88.5t73 -231.5q0 -91 -25 -182t-75 -172t-118 -143.5t-160 -99t-194 -36.5q-167 0 -249 104t-82 294zM354 377q0 -86 39 -133t111 -47q83 0 145 56 t89.5 134.5t27.5 163.5q0 168 -152 168q-63 0 -114 -30.5t-82 -80t-47.5 -109.5t-16.5 -122z" />
<glyph unicode="7" d="M166 0q319 721 659 1192q-300 0 -577 -18l84 260h858l10 -97q-124 -113 -369 -537.5t-397 -799.5h-268z" />
<glyph unicode="8" d="M63 283q0 273 371 469q-70 59 -112.5 132t-42.5 148q0 124 66.5 226t180 159.5t248.5 57.5q159 0 250.5 -86.5t91.5 -212.5q0 -69 -27 -132.5t-75 -115.5t-105 -94t-127 -78q92 -61 145.5 -149t53.5 -177q0 -134 -77 -241.5t-202.5 -165.5t-273.5 -58q-165 0 -265 90.5 t-100 227.5zM334 334q0 -71 46 -116.5t116 -45.5q101 0 167 62t66 165q0 68 -41.5 126t-120.5 116q-109 -60 -171 -131.5t-62 -175.5zM522 1087q0 -58 35 -117t94 -100q100 51 159.5 115t59.5 156q0 63 -40.5 102t-100.5 39q-92 0 -149.5 -52t-57.5 -143z" />
<glyph unicode="9" d="M98 147q200 23 366 140t265 301q-119 -58 -244 -58q-140 0 -216 89.5t-76 230.5q0 113 40.5 224.5t111.5 200.5t178 144.5t229 55.5q89 0 157 -30.5t109 -84.5t61.5 -124t20.5 -153q0 -155 -44.5 -309t-129 -289.5t-199 -245t-264 -181.5t-313.5 -93zM449 905 q0 -82 42 -125t121 -43q93 0 191 56q57 129 57 264q0 92 -35.5 139t-117.5 47q-79 0 -139.5 -54t-89.5 -130t-29 -154z" />
<glyph unicode=":" horiz-adv-x="581" d="M80 135q15 70 62 113t110 43t93.5 -42t16.5 -110q-17 -76 -67 -121t-115 -45q-60 0 -87.5 43.5t-12.5 118.5zM238 874q15 71 62 114.5t110 43.5t93 -42t15 -111q-15 -74 -65 -119t-115 -45q-60 0 -87.5 43.5t-12.5 115.5z" />
<glyph unicode=";" horiz-adv-x="573" d="M-57 -336q147 304 215 559h260q-132 -313 -318 -592zM231 827q0 85 53 145t126 60q54 0 84 -30.5t30 -83.5q0 -88 -56.5 -145.5t-129.5 -57.5q-50 0 -78.5 30t-28.5 82z" />
<glyph unicode="&#x3c;" d="M141 473l49 234l756 417l49 -135l-540 -401l370 -400l-110 -137z" />
<glyph unicode="=" d="M92 242l49 233h807l-51 -233h-805zM186 688l52 234h804l-51 -234h-805z" />
<glyph unicode="&#x3e;" d="M139 190l541 402l-369 399l107 133l577 -417q-9 -39 -25.5 -117t-25.5 -117q-378 -211 -756 -420z" />
<glyph unicode="?" horiz-adv-x="837" d="M143 84q0 87 52.5 147t126.5 60q53 0 82.5 -30.5t29.5 -82.5q0 -89 -56 -146t-128 -57q-51 0 -79 28.5t-28 80.5zM242 535q0 53 20.5 102.5t54 88.5t74 76t82 72.5t76.5 70t58.5 75.5t27.5 84v16q0 107 -146 107q-103 0 -225 -56l55 261q140 43 277 43q155 0 249.5 -69 t94.5 -196q0 -84 -29 -156.5t-75 -124t-101.5 -98t-111 -88.5t-101.5 -85.5t-75 -99t-29 -118.5h-164q-12 42 -12 95z" />
<glyph unicode="@" horiz-adv-x="1792" d="M61 168q0 168 53.5 336.5t156 315.5t238.5 261t313 180t368 66q113 0 206.5 -27.5t158.5 -75.5t109.5 -114.5t65.5 -144t21 -164.5q0 -143 -46.5 -282.5t-125 -246t-189.5 -172t-231 -65.5q-73 0 -108 60t-25 147q-128 -232 -326 -232q-100 0 -155.5 74t-55.5 192 q0 176 86 332.5t241.5 254.5t342.5 98q97 0 199 -29q-141 -531 -141 -623q0 -59 43 -59q65 0 127.5 74.5t101.5 193t39 238.5q0 83 -19 147t-62 114.5t-119 77.5t-183 27q-145 0 -277.5 -50t-232.5 -136.5t-174.5 -198t-113 -240t-38.5 -257.5q0 -96 24.5 -175t75 -140.5 t135 -95.5t197.5 -34q127 0 231.5 23t219.5 73l-29 -180q-259 -125 -491 -125q-155 0 -274.5 46t-191.5 126.5t-108.5 184t-36.5 225.5zM717 350q0 -125 82 -125q17 0 36 5.5t49.5 28t58.5 60.5t60 110.5t58 170.5l45 174q-14 2 -35 2q-98 0 -181.5 -65t-128 -162.5 t-44.5 -198.5z" />
<glyph unicode="A" horiz-adv-x="1239" d="M-106 0q453 846 813 1442q20 33 268 33q65 -781 174 -1475h-260q-7 48 -26 197t-19 176h-494q-78 -140 -190 -373h-266zM459 590h364q-2 23 -15 152t-24 251t-12 160q-17 -31 -155 -276.5t-158 -286.5z" />
<glyph unicode="B" horiz-adv-x="1171" d="M72 0l303 1434h370q193 0 293.5 -86.5t100.5 -219.5q0 -149 -101 -249.5t-262 -130.5q91 -8 156.5 -52t96 -107t30.5 -138q0 -90 -33.5 -165t-90.5 -125.5t-135 -86.5t-163 -53.5t-178 -20.5h-387zM358 217q78 -4 129 -4q65 0 118 12t98 38t70.5 75t25.5 117 q0 109 -84.5 155.5t-259.5 46.5zM496 844q41 -6 98 -6q59 0 107.5 11t89.5 35.5t64.5 70t23.5 108.5q0 87 -68 123.5t-223 36.5q-14 -48 -26.5 -98.5t-32.5 -138t-33 -142.5z" />
<glyph unicode="C" horiz-adv-x="1200" d="M133 496q0 139 44.5 281t128 266t194 221.5t252.5 154t292 56.5q147 0 281 -33l-59 -273q-94 60 -260 60q-125 0 -237 -56.5t-188.5 -148.5t-121.5 -212t-45 -245q0 -164 93.5 -260t264.5 -96q155 0 307 70l-45 -205q-177 -109 -385 -109q-244 0 -380 146t-136 383z" />
<glyph unicode="D" horiz-adv-x="1398" d="M70 0l305 1434h375q154 0 273 -42.5t192.5 -117.5t111 -174t37.5 -217q0 -139 -43 -271t-124 -242t-189.5 -193.5t-248 -130t-290.5 -46.5h-399zM358 225h121q279 0 446 167.5t167 449.5q0 167 -99.5 262.5t-294.5 95.5h-118q-74 -309 -222 -975z" />
<glyph unicode="E" horiz-adv-x="1060" d="M72 0l303 1434h749l-51 -250q-134 17 -491 20q-18 -66 -88 -370q264 0 436 12l-49 -234q-127 11 -432 11q-6 -27 -87 -383q404 4 580 20l-78 -260h-792z" />
<glyph unicode="F" horiz-adv-x="954" d="M72 0l303 1434h760q-51 -236 -54 -254q-133 17 -497 20q-31 -100 -99 -405q307 0 447 12l-53 -244q-153 10 -441 10q-39 -156 -127 -573h-239z" />
<glyph unicode="G" horiz-adv-x="1333" d="M133 498q0 144 45.5 287.5t131 266.5t199.5 218.5t261 150t305 54.5q142 0 301 -31q-7 -37 -59 -281q-132 66 -303 66q-125 0 -238.5 -57.5t-192 -151t-125 -215t-46.5 -246.5q0 -160 90 -253t258 -93q76 0 166 23l94 448h254q-68 -229 -146 -586q-75 -60 -200.5 -95.5 t-255.5 -35.5q-136 0 -241 41t-169 114t-96.5 168t-32.5 208z" />
<glyph unicode="H" horiz-adv-x="1415" d="M70 0l303 1434h264q-79 -314 -131 -547q222 6 348 6q123 0 233 -4l115 545h266q-52 -183 -155.5 -648t-169.5 -786h-244l135 641q-94 8 -246 8q-199 0 -335 -8q-86 -361 -142 -641h-241z" />
<glyph unicode="I" horiz-adv-x="595" d="M72 0l305 1434h262q-60 -215 -326 -1434h-241z" />
<glyph unicode="J" horiz-adv-x="593" d="M-334 -428l39 176q54 -33 133 -33q174 0 213 187l326 1532h262q-92 -331 -350 -1551q-37 -178 -149.5 -276.5t-254.5 -98.5q-124 0 -219 64z" />
<glyph unicode="K" horiz-adv-x="1265" d="M70 0l303 1434h264q-58 -209 -166 -686q179 109 649 686h297q-499 -579 -661 -691q141 -147 385 -743h-289q-81 232 -196.5 457.5t-184.5 283.5q-82 -352 -160 -741h-241z" />
<glyph unicode="L" horiz-adv-x="1011" d="M72 0l303 1434h264q-66 -231 -274 -1182q326 3 587 27l-82 -279h-798z" />
<glyph unicode="M" horiz-adv-x="1796" d="M53 0q50 182 171 687t173 747h334q111 -579 158 -985q259 406 577 985h346q-50 -232 -142.5 -738t-119.5 -696h-254l205 1085q-335 -596 -596 -991q-20 -35 -190 -35q-61 533 -160 1031l-250 -1090h-252z" />
<glyph unicode="N" horiz-adv-x="1456" d="M70 0l303 1434h297q213 -517 368 -983l207 983h260q-68 -240 -325 -1422q-4 -20 -74.5 -30.5t-163.5 -10.5q-205 641 -407 1104l-228 -1075h-237z" />
<glyph unicode="O" horiz-adv-x="1568" d="M139 541q0 108 30.5 220.5t85 215.5t134.5 194.5t173.5 158.5t207 106t231.5 39q165 0 288 -75t186 -205t63 -298q0 -108 -30.5 -220.5t-85 -215t-134 -193.5t-173 -157.5t-207.5 -105t-232 -38.5q-249 0 -393 159.5t-144 414.5zM420 590q0 -171 82 -269t235 -98 q114 0 213 56t164.5 146t103 202t37.5 225q0 171 -82 269t-235 98q-113 0 -211.5 -55.5t-164.5 -145.5t-104 -202t-38 -226z" />
<glyph unicode="P" horiz-adv-x="1099" d="M72 0l303 1434h315q246 0 361.5 -98t115.5 -275q0 -154 -73 -275t-200.5 -187.5t-285.5 -66.5q-72 0 -176 17q-38 -166 -121 -549h-239zM477 745q68 -10 125 -10q130 0 219.5 69.5t89.5 207.5q0 97 -60.5 149.5t-178.5 52.5q-16 0 -44 -1t-42 -1q-10 -36 -109 -467z" />
<glyph unicode="Q" horiz-adv-x="1568" d="M139 541q0 108 30.5 220.5t85 215.5t134.5 194.5t173.5 158.5t207 106t231.5 39q165 0 288 -75t186 -205t63 -298q0 -180 -79.5 -361t-224.5 -322.5t-323 -201.5q91 -130 228.5 -263t234.5 -179q-89 -68 -192 -68q-54 0 -121 31q-86 43 -205.5 166t-226.5 274 q-221 13 -355.5 172.5t-134.5 395.5zM420 590q0 -171 82 -269t235 -98q114 0 213 56t164.5 146t103 202t37.5 225q0 171 -82 269t-235 98q-113 0 -211.5 -55.5t-164.5 -145.5t-104 -202t-38 -226z" />
<glyph unicode="R" horiz-adv-x="1236" d="M72 0l303 1434h426q191 0 290 -94t99 -240q0 -169 -108.5 -290t-288.5 -163q61 -61 149 -231t176 -416h-305q-36 138 -96.5 277.5t-110.5 219.5t-69 81q-46 0 -97 10q-25 -109 -129 -588h-239zM485 784q75 -10 123 -10q132 0 221 67t89 197q0 79 -52.5 131t-160.5 52 h-119q-13 -49 -101 -437z" />
<glyph unicode="S" horiz-adv-x="1024" d="M12 96l41 178q144 -75 322 -75q51 0 95 10t82 31.5t59.5 60.5t21.5 92q0 40 -13 73.5t-46 68.5t-57.5 55.5t-78.5 62.5q-100 79 -155.5 159.5t-55.5 176.5q0 144 73 255.5t199 171t283 59.5q154 0 254 -39l-57 -285q-52 38 -122 59t-136 21q-56 0 -103 -15t-81.5 -55.5 t-34.5 -101.5q0 -65 43.5 -116.5t136.5 -123.5q49 -38 83.5 -70.5t69.5 -77t53.5 -97t18.5 -111.5q0 -220 -149 -358t-387 -138q-106 0 -204.5 35.5t-154.5 93.5z" />
<glyph unicode="T" horiz-adv-x="1114" d="M141 1182l54 252h1130l-53 -254q-146 20 -426 20q-62 -255 -145 -627t-123 -573h-244l254 1202q-303 -4 -447 -20z" />
<glyph unicode="U" horiz-adv-x="1388" d="M145 348q0 64 15 141q36 166 104.5 506.5t85.5 438.5h254l-184 -869q-11 -50 -11 -95q0 -10 1 -21q0 -117 64.5 -170.5t176.5 -53.5q134 0 231.5 85t137.5 274q32 157 94.5 448.5t85.5 401.5h248q-26 -104 -102 -437t-105 -473q-30 -137 -99.5 -246t-162.5 -175.5 t-199 -101t-217 -34.5q-186 0 -302 97t-116 284z" />
<glyph unicode="V" horiz-adv-x="1239" d="M203 1434h274q70 -521 98 -1145q128 226 299 552t300 593h272q-493 -924 -799 -1434q-28 -31 -276 -31q-61 784 -168 1465z" />
<glyph unicode="W" horiz-adv-x="1818" d="M213 1434h254q49 -657 49 -1036v-29q263 504 473 1005h234q39 -583 41 -1007q310 631 493 1067h262q-415 -877 -719 -1434q-25 -31 -249 -31q-7 581 -39 951q-240 -515 -463 -920q-22 -31 -248 -31q-21 742 -88 1465z" />
<glyph unicode="X" horiz-adv-x="1316" d="M-98 0q212 241 678 741q-40 88 -156.5 319.5t-177.5 373.5h293q92 -238 215 -492q240 258 432 492h293q-320 -373 -621 -695q10 -20 54.5 -110.5t61 -124t55.5 -114t63 -131.5t56.5 -122.5t61.5 -136.5h-295q-150 367 -235 539q-271 -287 -481 -539h-297z" />
<glyph unicode="Y" horiz-adv-x="1189" d="M178 1434h283q110 -255 215 -584q238 324 461 584h278q-193 -222 -419 -503t-242 -329q-42 -178 -131 -602h-242l125 596v6q0 63 -106 328q-112 279 -222 504z" />
<glyph unicode="Z" horiz-adv-x="1257" d="M-16 86q87 86 458 516.5t508 603.5q-510 -5 -651 -28l53 256h1018l8 -84q-36 -35 -219.5 -251.5t-408.5 -483t-326 -379.5q65 -2 132 -2q275 0 585 30l-82 -264h-1067z" />
<glyph unicode="[" horiz-adv-x="925" d="M33 -664l512 2415h704l-41 -188h-469l-432 -2036h471l-39 -191h-706z" />
<glyph unicode="\" horiz-adv-x="829" d="M76 1554h231l451 -2168h-232q-72 351 -222.5 1070t-227.5 1098z" />
<glyph unicode="]" horiz-adv-x="925" d="M-289 -662l41 189h467q187 874 432 2036h-471l39 188h705q-340 -1610 -512 -2413h-701z" />
<glyph unicode="^" d="M98 707l523 776h229l188 -772l-151 -56l-211 549l-447 -551z" />
<glyph unicode="_" horiz-adv-x="1296" d="M-158 -412l45 209h1243l-43 -209h-1245z" />
<glyph unicode="`" horiz-adv-x="825" d="M510 1554h238l131 -403l-144 -18z" />
<glyph unicode="a" horiz-adv-x="1058" d="M57 281q0 105 31 211t93 203t146.5 172.5t201 120t247.5 44.5q116 0 256 -43l-92 -391q-86 -377 -86 -514q0 -57 4 -84h-207q0 135 25 246q-152 -271 -367 -271q-127 0 -189.5 84t-62.5 222zM301 362q0 -74 27 -117.5t82 -43.5q15 0 34 6t46.5 21t56 46.5t57.5 76 t56.5 116t48.5 160.5l45 196q-27 6 -58 6q-91 0 -168 -44.5t-125.5 -114t-75 -150.5t-26.5 -158z" />
<glyph unicode="b" horiz-adv-x="1054" d="M43 18l319 1502l261 26q-75 -270 -170 -700q138 186 313 186q126 0 188 -84.5t62 -220.5q0 -105 -30.5 -211t-92.5 -203t-146.5 -172.5t-201.5 -120.5t-248 -45q-124 0 -254 43zM322 182q38 -6 55 -6q91 0 168.5 44.5t126 114t75.5 150.5t27 158q0 74 -27.5 118t-82.5 44 q-19 0 -42.5 -7.5t-59.5 -35t-69 -71t-67.5 -125t-58.5 -187.5z" />
<glyph unicode="c" horiz-adv-x="796" d="M61 301q0 126 46.5 256t125 235.5t193 172.5t240.5 67q101 0 186 -45l-53 -231q-67 45 -166 45q-86 0 -160.5 -61t-116 -157t-41.5 -200q0 -94 47.5 -148.5t135.5 -54.5q106 0 196 56l-32 -150q-110 -119 -297 -119q-144 0 -224 90.5t-80 243.5z" />
<glyph unicode="d" horiz-adv-x="1058" d="M57 281q0 88 23.5 179t67 176.5t109 160t145.5 128.5t182 82q81 22 167 22q22 0 44 -1l102 492l260 26q-48 -183 -217 -948q-86 -397 -86 -514q0 -57 2 -84h-205q0 135 25 246q-155 -271 -367 -271q-126 0 -189 84.5t-63 221.5zM301 362q0 -74 27 -117.5t82 -43.5 q15 0 33.5 6t46 21t56 46.5t57.5 76t56.5 116t47.5 160.5l45 196q-27 6 -56 6q-90 0 -167 -44.5t-125.5 -114t-75.5 -150.5t-27 -158z" />
<glyph unicode="e" horiz-adv-x="899" d="M59 301q0 128 47.5 259t127.5 235.5t195.5 170.5t240.5 66q108 0 167.5 -55t59.5 -146q0 -56 -20.5 -111.5t-67.5 -110.5t-114.5 -98.5t-169 -73.5t-224.5 -38q-2 -29 -2 -53q0 -86 51.5 -131t138.5 -45q142 0 254 53l-26 -139q-147 -119 -336 -119q-145 0 -233.5 88.5 t-88.5 247.5zM326 547q164 19 254 86t90 137q0 30 -18.5 49t-51.5 19q-84 0 -164.5 -84t-109.5 -207z" />
<glyph unicode="f" horiz-adv-x="673" d="M8 -465l264 1274h-161l41 190h161l27 127q41 194 175 311t308 117q43 0 84 -6l-47 -223q-31 8 -74 8q-79 0 -130.5 -55t-77.5 -176l-23 -103h221l-41 -190h-225q-44 -181 -134.5 -614.5t-133.5 -659.5h-234z" />
<glyph unicode="g" horiz-adv-x="1058" d="M-57 -391l34 178q132 -72 267 -72q115 0 195.5 50t107.5 145q13 36 41 139t33 121q-62 -96 -135 -145.5t-177 -49.5q-127 0 -189.5 84t-62.5 222q0 105 31 211t93 203t146.5 172.5t201 120t247.5 44.5q128 0 256 -43q-36 -150 -127.5 -548.5t-116.5 -516.5 q-24 -106 -76 -188t-121.5 -130.5t-149 -73t-165.5 -24.5q-186 0 -333 101zM301 362q0 -74 27 -117.5t82 -43.5q15 0 34 6t46.5 21t56 46.5t57.5 76t56.5 116t48.5 160.5l45 196q-27 6 -58 6q-91 0 -168 -44.5t-125.5 -114t-75 -150.5t-26.5 -158z" />
<glyph unicode="h" horiz-adv-x="1077" d="M41 0l321 1520l261 26q-103 -408 -191 -788q78 128 185 201t206 73q98 0 151.5 -56t53.5 -159q0 -83 -16 -155q-26 -111 -75.5 -331.5t-74.5 -330.5h-237l120 551q19 86 19 154q0 45 -16 64t-48 19q-48 0 -99 -31.5t-104 -96t-100 -178.5t-78 -263l-45 -219h-233z" />
<glyph unicode="i" horiz-adv-x="520" d="M41 0l209 983l264 37q-38 -126 -110 -442t-125 -578h-238zM326 1315q0 9 4 33v-2q12 61 61 105t103 44q44 0 72 -33.5t28 -83.5q0 -69 -51.5 -122.5t-114.5 -53.5q-44 0 -73 32t-29 81z" />
<glyph unicode="j" horiz-adv-x="520" d="M-348 -412q29 128 35 160q47 -35 129 -35q77 0 132 49t77 154l227 1067l264 37q-64 -208 -262 -1126q-22 -106 -66.5 -184t-101.5 -120.5t-116.5 -62t-121.5 -19.5q-129 0 -196 80zM328 1313q0 11 4 35v-2q12 61 61 105t103 44q44 0 72 -33.5t28 -83.5 q0 -69 -51.5 -122.5t-114.5 -53.5q-45 0 -73.5 31.5t-28.5 79.5z" />
<glyph unicode="k" horiz-adv-x="1024" d="M41 0q94 435 321 1520l261 26q-96 -386 -232 -1011q61 38 191 187.5t217 276.5h276q-165 -206 -263.5 -315.5t-160.5 -148.5q54 -67 127.5 -229.5t108.5 -305.5h-262q-15 99 -100.5 289.5t-135.5 236.5q-24 -109 -110 -526h-238z" />
<glyph unicode="l" horiz-adv-x="518" d="M41 0q94 435 321 1520l261 26q-130 -516 -344 -1546h-238z" />
<glyph unicode="m" horiz-adv-x="1615" d="M39 0l121 569q37 171 37 336q0 36 -4 94h231q0 -8 1 -24.5t1 -24.5q0 -99 -16 -211q81 139 187 216t210 77q96 0 142 -51.5t46 -138.5q0 -47 -10 -92q79 133 181.5 207.5t203.5 74.5q99 0 148 -60t49 -161q0 -56 -19 -149q-57 -246 -149 -662h-240l123 551q23 112 23 154 q0 43 -15.5 63t-50.5 20q-107 0 -200 -139t-160 -444l-45 -205h-238l131 582q14 72 14 123q0 83 -69 83q-95 0 -194 -140.5t-159 -428.5l-45 -219h-235z" />
<glyph unicode="n" horiz-adv-x="1077" d="M39 0l121 569q37 175 37 338q0 34 -4 92h231v-55q0 -96 -14 -205q79 137 193 215t220 78q107 0 156 -63t49 -168q0 -61 -16 -139q-82 -356 -150 -662h-239l122 551q19 86 19 154q0 46 -16 64.5t-50 18.5q-37 0 -77 -18.5t-83.5 -62.5t-82.5 -107.5t-75 -162t-61 -218.5 l-45 -219h-235z" />
<glyph unicode="o" horiz-adv-x="1009" d="M68 328q0 97 25.5 197t75.5 190.5t117 161.5t157 113t188 42q109 0 186.5 -51t113.5 -133t36 -186q0 -96 -25 -194.5t-74 -188t-115.5 -159.5t-156.5 -111.5t-190 -41.5q-163 0 -250.5 102t-87.5 259zM311 356q0 -86 32 -135t93 -49q82 0 150 74.5t102.5 179.5t34.5 209 q0 85 -32.5 135.5t-94.5 50.5q-83 0 -150.5 -75t-101 -180t-33.5 -210z" />
<glyph unicode="p" horiz-adv-x="1058" d="M4 -465l268 1280q-81 -14 -184 -55q2 14 35 174q86 45 190 70l49 233l254 27q-12 -43 -33 -128t-26 -104q217 -3 335 -121t118 -317q0 -165 -69 -310t-186 -231t-251 -86q-95 0 -172 29q-45 -205 -86 -461h-242zM373 184q49 -26 127 -26q115 0 189.5 110.5t74.5 272.5 q0 150 -59 222.5t-193 72.5q-58 -259 -139 -652z" />
<glyph unicode="q" horiz-adv-x="1058" d="M57 281q0 105 31 211t93 203t146.5 172.5t201 120t247.5 44.5q126 0 256 -43l-104 -479q-149 -660 -209 -975h-246q71 289 156 643q-66 -98 -141.5 -150.5t-178.5 -52.5q-127 0 -189.5 84t-62.5 222zM301 362q0 -74 27 -117.5t82 -43.5q15 0 34 6t46.5 21t56 46.5 t57.5 76t56.5 116t48.5 160.5l45 196q-27 6 -58 6q-91 0 -168 -44.5t-125.5 -114t-75 -150.5t-26.5 -158z" />
<glyph unicode="r" horiz-adv-x="700" d="M39 0l121 569q28 134 28 297q0 55 -4 133h219q0 -17 1.5 -46t1.5 -42q0 -77 -13 -188q160 296 391 309l-59 -276q-67 -2 -122.5 -27t-109.5 -83t-98.5 -165.5t-75.5 -261.5l-45 -219h-235z" />
<glyph unicode="s" horiz-adv-x="729" d="M2 76l35 166q49 -37 114.5 -56.5t124.5 -19.5q68 0 107 25t39 77q0 32 -21.5 62t-54 53t-70 53.5t-70 61.5t-54 79t-21.5 105q0 167 112 258.5t279 91.5q106 0 209 -35l-51 -235q-30 26 -83.5 41.5t-104.5 15.5q-56 0 -94 -28t-38 -70q0 -37 29.5 -70.5t71.5 -63 t84.5 -64t72 -88.5t29.5 -122q0 -157 -103 -251.5t-261 -94.5q-79 0 -155.5 28t-125.5 81z" />
<glyph unicode="t" horiz-adv-x="745" d="M96 809l43 190h164l55 265l263 47q-27 -97 -78 -312h241l-39 -190h-243q-13 -51 -115 -487q-4 -20 -4 -48q0 -84 98 -84q83 0 174 48l-39 -185q-140 -86 -280 -86q-98 0 -151.5 50.5t-53.5 142.5q0 36 14 108l115 541h-164z" />
<glyph unicode="u" horiz-adv-x="1067" d="M66 201q0 60 16 135q26 111 75 331.5t74 331.5h238l-121 -550q-18 -79 -18 -154q0 -46 15.5 -65t47.5 -19q105 0 208 139.5t163 429.5l45 219h233l-118 -569q-39 -185 -39 -340q0 -50 6 -90h-234q0 107 23 264q-80 -138 -193 -217.5t-217 -79.5q-103 0 -153.5 62.5 t-50.5 171.5z" />
<glyph unicode="v" horiz-adv-x="929" d="M100 999h252q24 -136 43.5 -357t20.5 -382q93 170 190 377.5t156 361.5h248q-103 -225 -246 -498.5t-275 -488.5q-10 -18 -88 -29.5t-176 -11.5q-7 220 -44.5 526t-80.5 502z" />
<glyph unicode="w" horiz-adv-x="1474" d="M102 999h240q21 -142 38.5 -344t18.5 -362q147 283 338 706h203q46 -425 49 -706q185 339 322 706h239q-273 -585 -506 -987q-12 -18 -80 -29.5t-159 -11.5q-7 345 -41 647q-173 -359 -311 -606q-10 -18 -79.5 -29.5t-160.5 -11.5q-9 239 -41 539t-70 489z" />
<glyph unicode="x" horiz-adv-x="933" d="M-90 0q201 219 448 516q-105 248 -225 483h273l122 -286q110 132 224 286h268q-217 -282 -395 -493q87 -194 213 -506h-271q-60 176 -118 315q-154 -188 -271 -315h-268z" />
<glyph unicode="y" horiz-adv-x="937" d="M-184 -487l49 219q19 -8 57 -8q87 0 170.5 74t138.5 177q-8 218 -43.5 525t-76.5 499h251q21 -145 41.5 -362t24.5 -375q92 164 186.5 369.5t155.5 367.5h248q-217 -479 -500 -954q-182 -304 -313 -420.5t-303 -116.5q-8 0 -86 5z" />
<glyph unicode="z" horiz-adv-x="909" d="M-37 80q61 54 292.5 322.5t332.5 398.5q-262 -5 -422 -35l49 233h729l10 -81q-55 -62 -260 -312t-344 -401q287 4 461 24l-74 -229h-764z" />
<glyph unicode="{" horiz-adv-x="948" d="M131 453l37 184h45q134 0 198 67t95 211q12 50 27.5 159.5t27.5 166.5q25 117 71 207t123.5 163t198.5 112t281 40l-43 -207q-82 -1 -144.5 -19.5t-103.5 -49t-72 -79.5t-48.5 -99.5t-32.5 -120.5q-12 -56 -27.5 -168t-28.5 -168q-60 -267 -262 -307q82 -14 114 -80.5 t21 -165.5q-5 -77 -51 -230.5t-51 -236.5q-19 -145 34 -218.5t218 -76.5l-45 -209q-115 1 -201.5 22.5t-138 61t-82.5 94t-36 121t3 142.5q6 83 51.5 239t50.5 236q13 110 -27.5 159.5t-160.5 49.5h-41z" />
<glyph unicode="|" horiz-adv-x="757" d="M33 -625l485 2292h227l-485 -2292h-227z" />
<glyph unicode="}" horiz-adv-x="948" d="M-256 -672l45 209q100 1 171.5 27t116.5 79t70.5 113.5t45.5 149.5q12 53 26.5 165.5t28.5 170.5q57 265 258 307q-81 14 -114.5 80.5t-20.5 163.5q5 77 51.5 232t52.5 239q10 65 1.5 118.5t-34 91.5t-81 59.5t-140.5 22.5l45 207q143 -1 241 -34t147.5 -94.5 t65.5 -138.5t3 -175q-6 -82 -51.5 -237.5t-50.5 -235.5q-14 -112 26 -161.5t160 -49.5h41l-37 -182h-45q-134 0 -199 -68t-96 -211q-9 -44 -24 -155t-29 -173q-20 -92 -52 -167t-86.5 -141.5t-127 -112t-176.5 -72t-232 -27.5z" />
<glyph unicode="~" d="M109 496q43 153 125 248.5t184 95.5q52 0 105 -24.5t89 -53.5t80.5 -53.5t81.5 -24.5q84 0 127 152l125 -23q-44 -161 -126 -255.5t-175 -94.5q-49 0 -101.5 24t-89 52.5t-81 52.5t-80.5 24q-53 0 -86 -39.5t-56 -117.5z" />
<glyph unicode="&#xa1;" horiz-adv-x="684" d="M0 -547l295 1112h147q-16 -98 -96 -556t-96 -556h-250zM289 868q15 74 64 119t114 45q61 0 88.5 -43t13.5 -117q-18 -70 -64.5 -112.5t-109.5 -42.5t-92 41t-14 110z" />
<glyph unicode="&#xa2;" d="M262 754q0 119 36.5 235t102 212.5t163 168t212.5 100.5q27 125 45 220h119l-45 -207q90 -3 174 -41q-22 -110 -51 -230q-60 38 -170 41l-133 -624q116 3 198 53l-30 -154q-83 -77 -211 -100l-51 -233h-117l49 227q-138 6 -214.5 95.5t-76.5 236.5zM504 834 q0 -141 96 -181q48 214 125 578q-97 -36 -159 -151.5t-62 -245.5z" />
<glyph unicode="&#xa3;" d="M109 0q97 149 142.5 300.5t45.5 340.5h-162l33 152h125v32q0 131 36 247t104.5 206.5t178.5 143.5t248 53q176 0 303 -43q-4 -21 -59 -279q-55 37 -127.5 57.5t-140.5 20.5q-65 0 -115.5 -21.5t-81 -57t-50 -86t-27 -101.5t-7.5 -111q0 -41 2 -61h334l-33 -152h-303 q-4 -102 -33 -190.5t-90 -198.5q292 3 498 29q-13 -42 -40.5 -137t-43.5 -144h-737z" />
<glyph unicode="&#xa4;" d="M-41 268l219 181q-18 61 -18 129q0 186 129 378l-148 193l191 172l129 -217q125 74 237 74q116 0 207 -72l209 205l115 -162l-217 -182q20 -64 20 -146q0 -183 -127 -375l139 -174l-192 -174l-121 195q-123 -74 -239 -74q-119 0 -211 76l-205 -197zM377 608 q0 -89 43.5 -137.5t120.5 -48.5q64 0 118 33.5t87.5 87t52 117t18.5 126.5q0 90 -44.5 139.5t-121.5 49.5q-63 0 -116.5 -34.5t-87 -88.5t-52 -118t-18.5 -126z" />
<glyph unicode="&#xa5;" d="M141 590l31 133h258q-94 317 -278 711h284q119 -281 191 -576q185 283 430 576h280q-341 -387 -565 -711h256l-29 -133h-303q-7 -36 -41 -178h234l-29 -133h-233q-9 -50 -30 -148t-28 -131h-241l59 279h-235l28 133h236l37 178h-312z" />
<glyph unicode="&#xa6;" horiz-adv-x="757" d="M33 -625l188 889h228l-189 -889h-227zM330 778l188 889h227l-188 -889h-227z" />
<glyph unicode="&#xa7;" horiz-adv-x="1257" d="M-2 -367l39 177q112 -86 248 -86q121 0 195.5 75.5t74.5 208.5q0 59 -28.5 115.5t-71 101t-93 98t-93.5 104.5t-73 122.5t-32 150.5q0 140 47.5 265t129 216.5t186 158.5t222 101t234.5 34q135 0 246 -43q-5 -21 -27 -118.5t-33 -148.5q-95 58 -208 58q-98 0 -167 -58.5 t-69 -167.5q0 -55 21 -108t54.5 -97.5t74.5 -89.5t81.5 -93.5t74 -101t54.5 -120.5t21 -143q0 -56 -12 -117q-39 -185 -157.5 -328.5t-276.5 -217t-328 -73.5q-219 0 -334 125zM389 809q0 -27 2 -41q3 -55 28 -107.5t61 -97.5t73 -90t70.5 -101t46.5 -114q45 -60 67.5 -108 t22.5 -107q0 -105 -74 -221q211 145 211 360q0 27 -2 41q-4 60 -33 120t-70 107.5t-88.5 104t-87 108.5t-66 122.5t-26.5 144.5q0 123 78 227q-97 -61 -155 -152t-58 -196z" />
<glyph unicode="&#xa8;" horiz-adv-x="841" d="M356 1313q12 60 53.5 96.5t90.5 36.5q50 0 75 -36t13 -97q-12 -59 -54 -97t-92 -38q-48 0 -73 38t-13 97zM758 1313q12 60 53 96.5t92 36.5q47 0 72.5 -36.5t13.5 -96.5q-12 -58 -54 -96.5t-89 -38.5q-50 0 -75 37.5t-13 97.5z" />
<glyph unicode="&#xaa;" horiz-adv-x="794" d="M150 1114q0 99 37.5 198t104 181.5t170.5 134t226 51.5q98 0 199 -34l-70 -297q-63 -269 -63 -377q0 -52 4 -70h-170q0 85 10 146q-56 -84 -117 -124t-137 -40q-98 0 -146 64t-48 167zM344 1178q0 -51 19 -82t55 -31q14 0 30.5 5.5t42 25.5t48.5 51.5t48 90t42 134.5 l33 139q-10 2 -31 2q-66 0 -122 -32t-91 -82t-54.5 -108t-19.5 -113z" />
<glyph unicode="&#xab;" horiz-adv-x="1492" d="M129 426l55 254l639 375l49 -133l-464 -373l307 -369l-109 -135zM711 426l53 254l639 375l51 -133l-463 -373l303 -369l-106 -135z" />
<glyph unicode="&#xac;" horiz-adv-x="1067" d="M66 461l51 229h901l-148 -690h-219l105 461h-690z" />
<glyph unicode="&#xad;" horiz-adv-x="669" d="M109 444l51 242h440l-51 -242h-440z" />
<glyph unicode="&#xaf;" horiz-adv-x="821" d="M348 1239l37 170h481l-35 -170h-483z" />
<glyph unicode="&#xb0;" horiz-adv-x="897" d="M186 999q24 195 153 334.5t300 139.5q143 0 221 -95.5t55 -261.5q-24 -196 -154 -335.5t-304 -139.5q-138 0 -216 96.5t-55 261.5zM403 1016q-11 -89 13 -141t82 -52q82 0 136 83.5t66 193.5q9 89 -14.5 138.5t-81.5 49.5q-81 0 -136 -82.5t-65 -189.5z" />
<glyph unicode="&#xb1;" d="M12 0l43 219h910q-21 -111 -45 -219h-908zM168 731l47 221h352l84 394h203l-82 -394h350q-42 -192 -47 -221h-352l-82 -391h-205l84 391h-352z" />
<glyph unicode="&#xb2;" horiz-adv-x="720" d="M137 989q61 33 104.5 58.5t114 74t114.5 91t78 99t34 109.5q0 92 -107 92q-79 0 -164 -30l39 188q99 21 201 21q117 0 181.5 -58.5t64.5 -152.5q0 -209 -293 -412q147 0 237 10l-67 -190h-527z" />
<glyph unicode="&#xb3;" horiz-adv-x="720" d="M186 901l31 143q62 -24 139 -24q60 0 93 29q40 11 64 33t24 67q0 39 -27 62.5t-76 23.5q-45 0 -98 -16q-11 41 -21 88q148 93 248 196q-102 0 -262 -8l59 172h490l6 -68q-114 -126 -266 -243q79 -11 119.5 -61.5t40.5 -116.5q0 -96 -54.5 -169t-141 -109t-189.5 -36 q-112 0 -179 37z" />
<glyph unicode="&#xb4;" horiz-adv-x="684" d="M309 1151l303 403h248l-403 -421z" />
<glyph unicode="&#xb5;" horiz-adv-x="1112" d="M-6 -424q0 162 33 332.5t82 292.5q62 449 155 798h238q-51 -272 -140 -569l-20 -88q0 -68 24.5 -97.5t79.5 -29.5q111 0 244 164q50 302 131 620h230q-30 -159 -76 -341t-88 -302q-10 -23 -10 -80q0 -42 17.5 -60.5t53.5 -18.5q37 0 78 16l-39 -180q-89 -60 -186 -60 q-59 0 -102.5 35.5t-43.5 95.5q0 14 9 66q-62 -97 -139 -148t-156 -51q-92 0 -146 70q-18 -89 -18 -221q0 -126 18 -246l-227 -57q-2 18 -2 59z" />
<glyph unicode="&#xb6;" horiz-adv-x="1159" d="M193 877q11 110 60.5 210t129 177t194 123t246.5 47h381l-303 -1434h-258q94 356 279 1217h-101l-174 -721q-74 -19 -117 -19q-95 0 -166 32t-110.5 87.5t-55 127t-5.5 153.5z" />
<glyph unicode="&#xb7;" d="M406 567q19 81 74 132t126 51t106.5 -51.5t18.5 -127.5q-19 -84 -76 -136t-131 -52q-68 0 -101.5 51t-16.5 133z" />
<glyph unicode="&#xb8;" horiz-adv-x="776" d="M43 -459l76 125q44 -20 100 -20q48 0 86.5 23.5t38.5 62.5q0 67 -147 67l125 201h129l-68 -94q97 -1 139.5 -47.5t42.5 -112.5q0 -58 -30 -105t-79 -75t-107.5 -43t-119.5 -15q-121 0 -186 33z" />
<glyph unicode="&#xb9;" horiz-adv-x="720" d="M291 1415l45 195l416 88q-65 -235 -189 -809h-188l123 581z" />
<glyph unicode="&#xba;" horiz-adv-x="749" d="M154 1151q0 70 19.5 144t57 142.5t88 122.5t118 86.5t141.5 32.5q123 0 186 -79.5t63 -202.5q0 -88 -30 -179t-83 -167.5t-134 -125t-174 -48.5q-125 0 -188.5 76.5t-63.5 197.5zM350 1174q0 -59 21 -95.5t61 -36.5q58 0 105.5 56t70.5 131.5t23 148.5q0 58 -21 93.5 t-61 35.5q-59 0 -106 -56t-70 -131t-23 -146z" />
<glyph unicode="&#xbb;" horiz-adv-x="1492" d="M78 180l465 373l-307 369l106 135l479 -379l-53 -254l-641 -377zM659 182l463 371l-305 369l107 135l477 -379l-53 -254l-641 -377z" />
<glyph unicode="&#xbc;" horiz-adv-x="1572" d="M16 0l1241 1434h238l-1241 -1434h-238zM240 1194l45 192l415 91q-56 -206 -188 -809h-188l122 581zM731 262q97 123 228 266.5t233 239.5q37 35 188 35l-102 -473h115l-45 -166h-105l-35 -164h-174l35 164h-321zM950 330h154l47 223q-129 -135 -201 -223z" />
<glyph unicode="&#xbd;" horiz-adv-x="1572" d="M16 0l1241 1434h238l-1241 -1434h-238zM240 1194l45 192l415 91q-56 -206 -188 -809h-188l122 581zM844 100q444 236 444 430q0 95 -106 95q-82 0 -164 -33l39 188q95 23 200 23q117 0 181.5 -59t64.5 -154q0 -205 -293 -412q118 0 238 10l-68 -188h-526z" />
<glyph unicode="&#xbe;" horiz-adv-x="1572" d="M68 0l1241 1434h237l-1241 -1434h-237zM135 678l31 145q59 -26 139 -26q57 0 118.5 35t61.5 94q0 40 -26.5 63t-75.5 23q-42 0 -98 -17q-14 55 -21 90q133 80 248 195q-155 0 -262 -8l59 174h490l6 -68q-94 -106 -266 -245q79 -11 119 -61t40 -118q0 -143 -112.5 -227 t-272.5 -84q-109 0 -178 35zM721 262q97 123 228 266.5t233 239.5q37 35 188 35l-102 -473h114l-45 -166h-104l-35 -164h-174l35 164h-322zM940 330h154l47 223q-129 -135 -201 -223z" />
<glyph unicode="&#xbf;" horiz-adv-x="837" d="M-66 -205q0 73 22 136.5t59 111.5t82.5 90.5t95 80.5t93.5 73.5t81 78t55 85.5q29 54 35 114h164q10 -44 10 -94q0 -53 -20.5 -102.5t-54 -88.5t-74 -76t-82 -72.5t-76.5 -70t-58.5 -75.5t-27.5 -84q0 -3 -1 -8.5t-1 -8.5q0 -53 39 -79.5t108 -26.5q104 0 227 55 l-57 -258q-128 -43 -274 -43q-158 0 -251.5 67.5t-93.5 194.5zM438 823q0 91 56 150t129 59q51 0 78.5 -30t27.5 -84q0 -86 -52.5 -144.5t-125.5 -58.5q-52 0 -82.5 29t-30.5 79z" />
<glyph unicode="&#xc0;" horiz-adv-x="1239" d="M-106 0q453 846 813 1442q20 33 268 33q65 -781 174 -1475h-260q-7 48 -26 197t-19 176h-494q-78 -140 -190 -373h-266zM459 590h364q-2 23 -15 152t-24 251t-12 160q-17 -31 -155 -276.5t-158 -286.5zM676 1864h231l150 -330l-146 -18z" />
<glyph unicode="&#xc1;" horiz-adv-x="1239" d="M-106 0q453 846 813 1442q20 33 268 33q65 -781 174 -1475h-260q-7 48 -26 197t-19 176h-494q-78 -140 -190 -373h-266zM459 590h364q-2 23 -15 152t-24 251t-12 160q-17 -31 -155 -276.5t-158 -286.5zM684 1534l287 330h237l-372 -348z" />
<glyph unicode="&#xc2;" horiz-adv-x="1239" d="M-106 0q453 846 813 1442q20 33 268 33q65 -781 174 -1475h-260q-7 48 -26 197t-19 176h-494q-78 -140 -190 -373h-266zM459 590h364q-2 23 -15 152t-24 251t-12 160q-17 -31 -155 -276.5t-158 -286.5zM543 1532l295 340h188l152 -340l-134 -21l-145 189l-225 -189z" />
<glyph unicode="&#xc3;" horiz-adv-x="1239" d="M-106 0q453 846 813 1442q20 33 268 33q65 -781 174 -1475h-260q-7 48 -26 197t-19 176h-494q-78 -140 -190 -373h-266zM459 590h364q-2 23 -15 152t-24 251t-12 160q-17 -31 -155 -276.5t-158 -286.5zM524 1559q41 139 112 216.5t167 77.5q40 0 71.5 -13.5t51.5 -32.5 t38 -38.5t40 -33t49 -13.5q83 0 116 131l107 -10q-40 -146 -110 -218.5t-162 -72.5q-38 0 -68.5 13.5t-50 33t-37.5 38.5t-39.5 32.5t-46.5 13.5q-51 0 -80.5 -33.5t-52.5 -105.5z" />
<glyph unicode="&#xc4;" horiz-adv-x="1239" d="M-106 0q453 846 813 1442q20 33 268 33q65 -781 174 -1475h-260q-7 48 -26 197t-19 176h-494q-78 -140 -190 -373h-266zM459 590h364q-2 23 -15 152t-24 251t-12 160q-17 -31 -155 -276.5t-158 -286.5zM559 1659q12 57 55 93t95 36q48 0 74 -36t14 -93 q-10 -56 -52.5 -92.5t-91.5 -36.5q-51 0 -77.5 36t-16.5 93zM971 1659q12 57 54.5 93t94.5 36q48 0 74 -36t14 -93q-10 -56 -52.5 -92.5t-92.5 -36.5t-76 36t-16 93z" />
<glyph unicode="&#xc5;" horiz-adv-x="1239" d="M-106 0q453 846 813 1442q20 33 268 33q65 -781 174 -1475h-260q-7 48 -26 197t-19 176h-494q-78 -140 -190 -373h-266zM459 590h364q-2 23 -15 152t-24 251t-12 160q-17 -31 -155 -276.5t-158 -286.5zM657 1681q23 102 102 166t177 64t148.5 -64t27.5 -166 q-21 -102 -97 -160.5t-175 -58.5q-101 0 -152.5 59t-30.5 160zM795 1679q-9 -45 10.5 -69.5t60.5 -24.5q86 0 107 90q9 48 -11 72.5t-61 24.5q-88 0 -106 -93z" />
<glyph unicode="&#xc6;" horiz-adv-x="1812" d="M-238 0q765 895 1237 1401q29 33 242 33h635l-51 -250q-133 17 -490 20q-28 -96 -88 -370q261 0 434 12l-49 -234q-126 11 -432 11q-7 -28 -84 -383q402 4 578 20l-78 -260h-791l80 373h-518q-103 -113 -313 -373h-312zM563 590h387l127 596q-496 -574 -514 -596z" />
<glyph unicode="&#xc7;" horiz-adv-x="1200" d="M133 496q0 139 44.5 281t128 266t194 221.5t252.5 154t292 56.5q147 0 281 -33l-59 -273q-94 60 -260 60q-125 0 -237 -56.5t-188.5 -148.5t-121.5 -212t-45 -245q0 -164 93.5 -260t264.5 -96q155 0 307 70l-45 -205q-177 -109 -385 -109q-244 0 -380 146t-136 383z M317 -459l76 125q44 -20 101 -20q48 0 86 23.5t38 62.5q0 67 -147 67l125 201h129l-68 -94q97 -1 140 -47.5t43 -112.5q0 -58 -30 -105t-79 -75t-107.5 -43t-119.5 -15q-122 0 -187 33z" />
<glyph unicode="&#xc8;" horiz-adv-x="1060" d="M72 0l303 1434h749l-51 -250q-134 17 -491 20q-18 -66 -88 -370q264 0 436 12l-49 -234q-127 11 -432 11q-6 -27 -87 -383q404 4 580 20l-78 -260h-792zM594 1864h231l150 -330l-146 -18z" />
<glyph unicode="&#xc9;" horiz-adv-x="1060" d="M72 0l303 1434h749l-51 -250q-134 17 -491 20q-18 -66 -88 -370q264 0 436 12l-49 -234q-127 11 -432 11q-6 -27 -87 -383q404 4 580 20l-78 -260h-792zM645 1534l287 330h237l-372 -348z" />
<glyph unicode="&#xca;" horiz-adv-x="1060" d="M72 0l303 1434h749l-51 -250q-134 17 -491 20q-18 -66 -88 -370q264 0 436 12l-49 -234q-127 11 -432 11q-6 -27 -87 -383q404 4 580 20l-78 -260h-792zM483 1532l295 340h189l151 -340l-133 -21l-145 189l-226 -189z" />
<glyph unicode="&#xcb;" horiz-adv-x="1060" d="M72 0l303 1434h749l-51 -250q-134 17 -491 20q-18 -66 -88 -370q264 0 436 12l-49 -234q-127 11 -432 11q-6 -27 -87 -383q404 4 580 20l-78 -260h-792zM506 1659q12 57 54.5 93t94.5 36q48 0 74 -36t14 -93q-10 -56 -52 -92.5t-91 -36.5q-51 0 -77.5 36t-16.5 93z M918 1659q12 57 54.5 93t94.5 36q48 0 74 -36t14 -93q-10 -56 -52.5 -92.5t-92.5 -36.5t-76 36t-16 93z" />
<glyph unicode="&#xcc;" horiz-adv-x="595" d="M72 0l305 1434h262q-60 -215 -326 -1434h-241zM340 1864h231l150 -330l-146 -18z" />
<glyph unicode="&#xcd;" horiz-adv-x="595" d="M72 0l305 1434h262q-60 -215 -326 -1434h-241zM360 1534l287 330h238l-373 -348z" />
<glyph unicode="&#xce;" horiz-adv-x="595" d="M72 0l305 1434h262q-60 -215 -326 -1434h-241zM207 1532l295 340h188l152 -340l-133 -21l-146 189l-225 -189z" />
<glyph unicode="&#xcf;" horiz-adv-x="595" d="M72 0l305 1434h262q-60 -215 -326 -1434h-241zM229 1659q12 57 55 93t95 36q48 0 74 -36t14 -93q-10 -56 -52 -92.5t-91 -36.5q-51 0 -78 36t-17 93zM641 1659q12 57 55 93t95 36q48 0 74 -36t14 -93q-10 -56 -52.5 -92.5t-93.5 -36.5q-50 0 -76 36t-16 93z" />
<glyph unicode="&#xd0;" horiz-adv-x="1398" d="M70 0l141 662h-125l33 149h123l133 623h375q154 0 273 -42.5t192.5 -117.5t111 -174t37.5 -217q0 -139 -43 -271t-124 -242t-189.5 -193.5t-248 -130t-290.5 -46.5h-399zM358 225h121q279 0 446 167.5t167 449.5q0 167 -99.5 262.5t-294.5 95.5h-118q-38 -149 -91 -389 h220l-33 -149h-221q-12 -55 -47 -211t-50 -226z" />
<glyph unicode="&#xd1;" horiz-adv-x="1456" d="M70 0l303 1434h297q213 -517 368 -983l207 983h260q-68 -240 -325 -1422q-4 -20 -74.5 -30.5t-163.5 -10.5q-205 641 -407 1104l-228 -1075h-237zM629 1559q41 139 111.5 216.5t166.5 77.5q40 0 71.5 -13.5t51.5 -32.5t38 -38.5t40 -33t49 -13.5q42 0 72 34.5t45 96.5 l106 -10q-40 -146 -110 -218.5t-162 -72.5q-38 0 -68.5 13.5t-50 33t-37.5 38.5t-39.5 32.5t-46.5 13.5q-51 0 -80.5 -33.5t-52.5 -105.5z" />
<glyph unicode="&#xd2;" horiz-adv-x="1568" d="M139 541q0 108 30.5 220.5t85 215.5t134.5 194.5t173.5 158.5t207 106t231.5 39q165 0 288 -75t186 -205t63 -298q0 -108 -30.5 -220.5t-85 -215t-134 -193.5t-173 -157.5t-207.5 -105t-232 -38.5q-249 0 -393 159.5t-144 414.5zM420 590q0 -171 82 -269t235 -98 q114 0 213 56t164.5 146t103 202t37.5 225q0 171 -82 269t-235 98q-113 0 -211.5 -55.5t-164.5 -145.5t-104 -202t-38 -226zM856 1864h231l150 -330l-145 -18z" />
<glyph unicode="&#xd3;" horiz-adv-x="1568" d="M139 541q0 108 30.5 220.5t85 215.5t134.5 194.5t173.5 158.5t207 106t231.5 39q165 0 288 -75t186 -205t63 -298q0 -108 -30.5 -220.5t-85 -215t-134 -193.5t-173 -157.5t-207.5 -105t-232 -38.5q-249 0 -393 159.5t-144 414.5zM420 590q0 -171 82 -269t235 -98 q114 0 213 56t164.5 146t103 202t37.5 225q0 171 -82 269t-235 98q-113 0 -211.5 -55.5t-164.5 -145.5t-104 -202t-38 -226zM854 1534l287 330h237l-372 -348z" />
<glyph unicode="&#xd4;" horiz-adv-x="1568" d="M139 541q0 108 30.5 220.5t85 215.5t134.5 194.5t173.5 158.5t207 106t231.5 39q165 0 288 -75t186 -205t63 -298q0 -108 -30.5 -220.5t-85 -215t-134 -193.5t-173 -157.5t-207.5 -105t-232 -38.5q-249 0 -393 159.5t-144 414.5zM420 590q0 -171 82 -269t235 -98 q114 0 213 56t164.5 146t103 202t37.5 225q0 171 -82 269t-235 98q-113 0 -211.5 -55.5t-164.5 -145.5t-104 -202t-38 -226zM711 1532l295 340h188l152 -340l-134 -21l-145 189l-225 -189z" />
<glyph unicode="&#xd5;" horiz-adv-x="1568" d="M139 541q0 108 30.5 220.5t85 215.5t134.5 194.5t173.5 158.5t207 106t231.5 39q165 0 288 -75t186 -205t63 -298q0 -108 -30.5 -220.5t-85 -215t-134 -193.5t-173 -157.5t-207.5 -105t-232 -38.5q-249 0 -393 159.5t-144 414.5zM420 590q0 -171 82 -269t235 -98 q114 0 213 56t164.5 146t103 202t37.5 225q0 171 -82 269t-235 98q-113 0 -211.5 -55.5t-164.5 -145.5t-104 -202t-38 -226zM678 1559q41 139 111.5 216.5t166.5 77.5q40 0 71.5 -13.5t51.5 -32.5t38 -38.5t40 -33t49 -13.5q42 0 72 34.5t45 96.5l107 -10 q-40 -146 -110.5 -218.5t-162.5 -72.5q-38 0 -68.5 13.5t-50 33t-37.5 38.5t-39.5 32.5t-46.5 13.5q-51 0 -80.5 -33.5t-52.5 -105.5z" />
<glyph unicode="&#xd6;" horiz-adv-x="1568" d="M139 541q0 108 30.5 220.5t85 215.5t134.5 194.5t173.5 158.5t207 106t231.5 39q165 0 288 -75t186 -205t63 -298q0 -108 -30.5 -220.5t-85 -215t-134 -193.5t-173 -157.5t-207.5 -105t-232 -38.5q-249 0 -393 159.5t-144 414.5zM420 590q0 -171 82 -269t235 -98 q114 0 213 56t164.5 146t103 202t37.5 225q0 171 -82 269t-235 98q-113 0 -211.5 -55.5t-164.5 -145.5t-104 -202t-38 -226zM719 1659q12 57 54.5 93t94.5 36q48 0 74 -36t14 -93q-10 -56 -52 -92.5t-91 -36.5q-51 0 -77.5 36t-16.5 93zM1130 1659q12 57 55 93t95 36 q48 0 74 -36t14 -93q-10 -56 -52.5 -92.5t-92.5 -36.5t-76.5 36.5t-16.5 92.5z" />
<glyph unicode="&#xd7;" d="M117 276l309 277l-190 278l178 162l190 -278l307 274l107 -153l-307 -275l192 -278l-182 -160l-191 276l-307 -276z" />
<glyph unicode="&#xd8;" horiz-adv-x="1568" d="M96 10l148 164q-105 144 -105 367q0 108 30.5 220.5t85 215.5t134.5 194.5t173.5 158.5t207 106t231.5 39q186 0 324 -101q107 119 115 127q125 -72 131 -76q-28 -30 -79 -86t-65 -71q111 -151 111 -371q0 -108 -30.5 -220.5t-85 -215t-134 -193.5t-173 -157.5 t-207.5 -105t-232 -38.5q-198 0 -330 101q-17 -20 -37.5 -42t-44.5 -48t-37 -41q-8 5 -57 32t-74 41zM422 580q0 -100 37 -172l667 751q-76 60 -188 60q-93 0 -176 -37t-144 -100.5t-106 -145.5t-67.5 -173.5t-22.5 -182.5zM545 283q75 -60 192 -60q114 0 213 56t164.5 146 t103 202t37.5 225q0 108 -38 186z" />
<glyph unicode="&#xd9;" horiz-adv-x="1388" d="M145 348q0 64 15 141q36 166 104.5 506.5t85.5 438.5h254l-184 -869q-13 -62 -10 -116q0 -117 64.5 -170.5t176.5 -53.5q134 0 231.5 85t137.5 274q32 157 94.5 448.5t85.5 401.5h248q-26 -104 -102 -437t-105 -473q-30 -137 -99.5 -246t-162.5 -175.5t-199 -101 t-217 -34.5q-186 0 -302 97t-116 284zM707 1864h231l149 -330l-145 -18z" />
<glyph unicode="&#xda;" horiz-adv-x="1388" d="M145 348q0 64 15 141q36 166 104.5 506.5t85.5 438.5h254l-184 -869q-13 -62 -10 -116q0 -117 64.5 -170.5t176.5 -53.5q134 0 231.5 85t137.5 274q32 157 94.5 448.5t85.5 401.5h248q-26 -104 -102 -437t-105 -473q-30 -137 -99.5 -246t-162.5 -175.5t-199 -101 t-217 -34.5q-186 0 -302 97t-116 284zM770 1534l287 330h237l-372 -348z" />
<glyph unicode="&#xdb;" horiz-adv-x="1388" d="M145 348q0 64 15 141q36 166 104.5 506.5t85.5 438.5h254l-184 -869q-13 -62 -10 -116q0 -117 64.5 -170.5t176.5 -53.5q134 0 231.5 85t137.5 274q32 157 94.5 448.5t85.5 401.5h248q-26 -104 -102 -437t-105 -473q-30 -137 -99.5 -246t-162.5 -175.5t-199 -101 t-217 -34.5q-186 0 -302 97t-116 284zM600 1532l295 340h188l152 -340l-133 -21l-146 189l-225 -189z" />
<glyph unicode="&#xdc;" horiz-adv-x="1388" d="M145 348q0 64 15 141q36 166 104.5 506.5t85.5 438.5h254l-184 -869q-13 -62 -10 -116q0 -117 64.5 -170.5t176.5 -53.5q134 0 231.5 85t137.5 274q32 157 94.5 448.5t85.5 401.5h248q-26 -104 -102 -437t-105 -473q-30 -137 -99.5 -246t-162.5 -175.5t-199 -101 t-217 -34.5q-186 0 -302 97t-116 284zM621 1659q12 57 54.5 93t94.5 36q48 0 74 -36t14 -93q-10 -56 -52 -92.5t-91 -36.5q-51 0 -77.5 36t-16.5 93zM1032 1659q12 57 55 93t95 36q48 0 74 -36t14 -93q-10 -56 -52.5 -92.5t-93.5 -36.5q-50 0 -76 36t-16 93z" />
<glyph unicode="&#xdd;" horiz-adv-x="1189" d="M178 1434h283q110 -255 215 -584q238 324 461 584h278q-193 -222 -419 -503t-242 -329q-42 -178 -131 -602h-242l125 596q6 55 -106 334t-222 504zM684 1534l287 330h237l-372 -348z" />
<glyph unicode="&#xde;" horiz-adv-x="1099" d="M70 0l305 1434h262q-2 -8 -24.5 -100.5t-37.5 -157.5h138q101 0 179.5 -29.5t126 -81t71.5 -115.5t24 -137q0 -145 -68 -267t-196 -196t-289 -74q-71 0 -186 21l-64 -297h-241zM416 483q74 -8 145 -8q73 0 138.5 29.5t111 95.5t45.5 156q0 85 -52 142.5t-157 57.5h-125 q-62 -262 -106 -473z" />
<glyph unicode="&#xdf;" horiz-adv-x="1079" d="M-49 -465q164 802 323 1563q45 216 179 330t325 114q86 0 151 -25t102 -69t55 -98t18 -117q0 -108 -43.5 -214.5t-120.5 -193.5h-14q-51 0 -88 -29t-37 -79q0 -36 23 -72.5t56.5 -69.5t66.5 -69t56 -85.5t23 -105.5q0 -156 -102.5 -252t-257.5 -96q-67 0 -130 26.5 t-104 78.5l35 157q38 -35 89.5 -54t98.5 -19q59 0 94 28t35 82q0 34 -23.5 70t-57 70t-66.5 71.5t-56.5 89.5t-23.5 109q0 111 72 198t184 107q64 93 64 193q0 67 -34 108t-106 41q-155 0 -211 -190q-107 -359 -344 -1598h-231z" />
<glyph unicode="&#xe0;" horiz-adv-x="1058" d="M57 281q0 105 31 211t93 203t146.5 172.5t201 120t247.5 44.5q116 0 256 -43l-92 -391q-86 -377 -86 -514q0 -57 4 -84h-207q0 135 25 246q-152 -271 -367 -271q-127 0 -189.5 84t-62.5 222zM301 362q0 -74 27 -117.5t82 -43.5q15 0 34 6t46.5 21t56 46.5t57.5 76 t56.5 116t48.5 160.5l45 196q-27 6 -58 6q-91 0 -168 -44.5t-125.5 -114t-75 -150.5t-26.5 -158zM598 1554h238l131 -403l-144 -18z" />
<glyph unicode="&#xe1;" horiz-adv-x="1058" d="M57 281q0 105 31 211t93 203t146.5 172.5t201 120t247.5 44.5q116 0 256 -43l-92 -391q-86 -377 -86 -514q0 -57 4 -84h-207q0 135 25 246q-152 -271 -367 -271q-127 0 -189.5 84t-62.5 222zM301 362q0 -74 27 -117.5t82 -43.5q15 0 34 6t46.5 21t56 46.5t57.5 76 t56.5 116t48.5 160.5l45 196q-27 6 -58 6q-91 0 -168 -44.5t-125.5 -114t-75 -150.5t-26.5 -158zM584 1151l303 403h248l-404 -421z" />
<glyph unicode="&#xe2;" horiz-adv-x="1058" d="M57 281q0 105 31 211t93 203t146.5 172.5t201 120t247.5 44.5q116 0 256 -43l-92 -391q-86 -377 -86 -514q0 -57 4 -84h-207q0 135 25 246q-152 -271 -367 -271q-127 0 -189.5 84t-62.5 222zM301 362q0 -74 27 -117.5t82 -43.5q15 0 34 6t46.5 21t56 46.5t57.5 76 t56.5 116t48.5 160.5l45 196q-27 6 -58 6q-91 0 -168 -44.5t-125.5 -114t-75 -150.5t-26.5 -158zM432 1155l311 393h189l143 -393l-139 -25l-135 242l-236 -242z" />
<glyph unicode="&#xe3;" horiz-adv-x="1058" d="M57 281q0 105 31 211t93 203t146.5 172.5t201 120t247.5 44.5q116 0 256 -43l-92 -391q-86 -377 -86 -514q0 -57 4 -84h-207q0 135 25 246q-152 -271 -367 -271q-127 0 -189.5 84t-62.5 222zM301 362q0 -74 27 -117.5t82 -43.5q15 0 34 6t46.5 21t56 46.5t57.5 76 t56.5 116t48.5 160.5l45 196q-27 6 -58 6q-91 0 -168 -44.5t-125.5 -114t-75 -150.5t-26.5 -158zM412 1184q42 136 108.5 210t155.5 74q39 0 69.5 -13t50 -32t36.5 -37.5t36 -31.5t41 -13q68 0 107 119l104 -10q-41 -142 -109.5 -210.5t-148.5 -68.5q-44 0 -79.5 20 t-54.5 43.5t-44 43.5t-51 20q-42 0 -68.5 -29.5t-50.5 -97.5z" />
<glyph unicode="&#xe4;" horiz-adv-x="1058" d="M57 281q0 105 31 211t93 203t146.5 172.5t201 120t247.5 44.5q116 0 256 -43l-92 -391q-86 -377 -86 -514q0 -57 4 -84h-207q0 135 25 246q-152 -271 -367 -271q-127 0 -189.5 84t-62.5 222zM301 362q0 -74 27 -117.5t82 -43.5q15 0 34 6t46.5 21t56 46.5t57.5 76 t56.5 116t48.5 160.5l45 196q-27 6 -58 6q-91 0 -168 -44.5t-125.5 -114t-75 -150.5t-26.5 -158zM467 1313q12 60 53 96.5t90 36.5q50 0 75 -36t13 -97q-12 -59 -53.5 -97t-91.5 -38q-48 0 -73 38t-13 97zM868 1313q12 60 53.5 96.5t92.5 36.5q47 0 72.5 -36.5t13.5 -96.5 q-12 -58 -54.5 -96.5t-89.5 -38.5q-50 0 -75 37.5t-13 97.5z" />
<glyph unicode="&#xe5;" horiz-adv-x="1058" d="M57 281q0 105 31 211t93 203t146.5 172.5t201 120t247.5 44.5q116 0 256 -43l-92 -391q-86 -377 -86 -514q0 -57 4 -84h-207q0 135 25 246q-152 -271 -367 -271q-127 0 -189.5 84t-62.5 222zM301 362q0 -74 27 -117.5t82 -43.5q15 0 34 6t46.5 21t56 46.5t57.5 76 t56.5 116t48.5 160.5l45 196q-27 6 -58 6q-91 0 -168 -44.5t-125.5 -114t-75 -150.5t-26.5 -158zM569 1356q23 105 104 176.5t177 71.5q97 0 146 -70.5t24 -177.5q-23 -106 -102 -175t-175 -69q-97 0 -146.5 69t-27.5 175zM707 1354q-10 -49 8 -80t57 -31q41 0 70 28.5 t41 78.5q10 52 -9 83t-59 31q-41 0 -69 -29t-39 -81z" />
<glyph unicode="&#xe6;" horiz-adv-x="1499" d="M57 281q0 105 31 211t93 203t146.5 172.5t201 120t247.5 44.5q79 0 180 -33l-28 -114q150 147 342 147q108 0 167.5 -55t59.5 -146q0 -56 -20.5 -111.5t-67.5 -110.5t-114.5 -98.5t-169 -73.5t-224.5 -38q-2 -29 -2 -53q0 -86 52 -131t139 -45q141 0 253 53l-26 -139 q-147 -119 -336 -119q-125 0 -196 70.5t-85 204.5q-152 -265 -391 -265q-127 0 -189.5 84t-62.5 222zM301 362q0 -74 27 -117.5t82 -43.5q15 0 34 6t46.5 21t56 46.5t57.5 76t56.5 116t48.5 160.5l45 196q-27 6 -58 6q-91 0 -168 -44.5t-125.5 -114t-75 -150.5t-26.5 -158z M926 547q164 19 254 86t90 137q0 30 -18.5 49t-51.5 19q-84 0 -164.5 -84t-109.5 -207z" />
<glyph unicode="&#xe7;" horiz-adv-x="796" d="M47 -459l76 125q44 -20 100 -20q48 0 86.5 23.5t38.5 62.5q0 67 -147 67l125 201h129l-68 -94q97 -1 139.5 -47.5t42.5 -112.5q0 -58 -30 -105t-79 -75t-107.5 -43t-119.5 -15q-121 0 -186 33zM61 301q0 126 46.5 256t125 235.5t193 172.5t240.5 67q101 0 186 -45 l-53 -231q-67 45 -166 45q-86 0 -160.5 -61t-116 -157t-41.5 -200q0 -94 47.5 -148.5t135.5 -54.5q106 0 196 56l-32 -150q-110 -119 -297 -119q-144 0 -224 90.5t-80 243.5z" />
<glyph unicode="&#xe8;" horiz-adv-x="899" d="M59 301q0 128 47.5 259t127.5 235.5t195.5 170.5t240.5 66q108 0 167.5 -55t59.5 -146q0 -56 -20.5 -111.5t-67.5 -110.5t-114.5 -98.5t-169 -73.5t-224.5 -38q-2 -29 -2 -53q0 -86 51.5 -131t138.5 -45q142 0 254 53l-26 -139q-147 -119 -336 -119q-145 0 -233.5 88.5 t-88.5 247.5zM326 547q164 19 254 86t90 137q0 30 -18.5 49t-51.5 19q-84 0 -164.5 -84t-109.5 -207zM463 1554h237l131 -403l-143 -18z" />
<glyph unicode="&#xe9;" horiz-adv-x="899" d="M59 301q0 128 47.5 259t127.5 235.5t195.5 170.5t240.5 66q108 0 167.5 -55t59.5 -146q0 -56 -20.5 -111.5t-67.5 -110.5t-114.5 -98.5t-169 -73.5t-224.5 -38q-2 -29 -2 -53q0 -86 51.5 -131t138.5 -45q142 0 254 53l-26 -139q-147 -119 -336 -119q-145 0 -233.5 88.5 t-88.5 247.5zM326 547q164 19 254 86t90 137q0 30 -18.5 49t-51.5 19q-84 0 -164.5 -84t-109.5 -207zM504 1151l303 403h248l-404 -421z" />
<glyph unicode="&#xea;" horiz-adv-x="899" d="M59 301q0 128 47.5 259t127.5 235.5t195.5 170.5t240.5 66q108 0 167.5 -55t59.5 -146q0 -56 -20.5 -111.5t-67.5 -110.5t-114.5 -98.5t-169 -73.5t-224.5 -38q-2 -29 -2 -53q0 -86 51.5 -131t138.5 -45q142 0 254 53l-26 -139q-147 -119 -336 -119q-145 0 -233.5 88.5 t-88.5 247.5zM326 547q164 19 254 86t90 137q0 30 -18.5 49t-51.5 19q-84 0 -164.5 -84t-109.5 -207zM356 1155l312 393h188l143 -393l-139 -25l-135 242l-236 -242z" />
<glyph unicode="&#xeb;" horiz-adv-x="899" d="M59 301q0 128 47.5 259t127.5 235.5t195.5 170.5t240.5 66q108 0 167.5 -55t59.5 -146q0 -56 -20.5 -111.5t-67.5 -110.5t-114.5 -98.5t-169 -73.5t-224.5 -38q-2 -29 -2 -53q0 -86 51.5 -131t138.5 -45q142 0 254 53l-26 -139q-147 -119 -336 -119q-145 0 -233.5 88.5 t-88.5 247.5zM326 547q164 19 254 86t90 137q0 30 -18.5 49t-51.5 19q-84 0 -164.5 -84t-109.5 -207zM373 1313q12 60 53 96.5t90 36.5q50 0 75 -36t13 -97q-12 -59 -53.5 -97t-91.5 -38q-48 0 -73 38t-13 97zM774 1313q12 60 53.5 96.5t92.5 36.5q47 0 72.5 -36.5 t13.5 -96.5q-12 -58 -54.5 -96.5t-89.5 -38.5q-50 0 -75 37.5t-13 97.5z" />
<glyph unicode="&#xec;" horiz-adv-x="520" d="M41 0l209 983l264 37q-38 -126 -110 -442t-125 -578h-238zM209 1554h237l132 -403l-144 -18z" />
<glyph unicode="&#xed;" horiz-adv-x="520" d="M41 0l209 983l264 37q-38 -126 -110 -442t-125 -578h-238zM268 1151l303 403h248l-403 -421z" />
<glyph unicode="&#xee;" horiz-adv-x="520" d="M41 0l209 983l264 37q-38 -126 -110 -442t-125 -578h-238zM96 1155l312 393h188l143 -393l-139 -25l-135 242l-236 -242z" />
<glyph unicode="&#xef;" horiz-adv-x="520" d="M41 0l209 983l264 37q-38 -126 -110 -442t-125 -578h-238zM125 1313q12 60 53 96.5t90 36.5q50 0 75 -36t13 -97q-12 -59 -53.5 -97t-91.5 -38q-48 0 -73 38t-13 97zM526 1313q12 60 53.5 96.5t92.5 36.5q47 0 72.5 -36.5t13.5 -96.5q-12 -58 -54.5 -96.5t-89.5 -38.5 q-50 0 -75 37.5t-13 97.5z" />
<glyph unicode="&#xf0;" horiz-adv-x="993" d="M63 326q0 161 70 320t194 264.5t265 105.5q95 0 151 -64q-15 149 -94 273l-190 -103l-66 105l174 94q-69 63 -153 100l112 133q118 -35 224 -131l155 84l64 -104l-135 -74q139 -211 139 -518q0 -123 -25 -244.5t-75 -229t-119 -190.5t-163 -131.5t-200 -48.5 q-110 0 -186 50t-109 129t-33 180zM307 346q0 -81 31 -129.5t92 -48.5q76 0 142.5 74t102.5 179.5t36 205.5q0 83 -31.5 131.5t-97.5 48.5q-81 0 -145.5 -72.5t-97 -176.5t-32.5 -212z" />
<glyph unicode="&#xf1;" horiz-adv-x="1077" d="M39 0l121 569q37 175 37 338q0 34 -4 92h231v-55q0 -96 -14 -205q79 137 193 215t220 78q107 0 156 -63t49 -168q0 -61 -16 -139q-82 -356 -150 -662h-239l122 551q19 86 19 154q0 46 -16 64.5t-50 18.5q-37 0 -77 -18.5t-83.5 -62.5t-82.5 -107.5t-75 -162t-61 -218.5 l-45 -219h-235zM348 1184q42 136 108.5 210t155.5 74q39 0 69.5 -13t50.5 -32t36.5 -37.5t36 -31.5t41.5 -13q67 0 106 119l105 -10q-41 -142 -109.5 -210.5t-148.5 -68.5q-36 0 -66 13t-49.5 31.5t-36.5 37.5t-36.5 32t-41.5 13q-42 0 -68 -29.5t-50 -97.5z" />
<glyph unicode="&#xf2;" horiz-adv-x="1009" d="M68 328q0 97 25.5 197t75.5 190.5t117 161.5t157 113t188 42q109 0 186.5 -51t113.5 -133t36 -186q0 -96 -25 -194.5t-74 -188t-115.5 -159.5t-156.5 -111.5t-190 -41.5q-163 0 -250.5 102t-87.5 259zM311 356q0 -86 32 -135t93 -49q82 0 150 74.5t102.5 179.5t34.5 209 q0 85 -32.5 135.5t-94.5 50.5q-83 0 -150.5 -75t-101 -180t-33.5 -210zM481 1554h238l131 -403l-143 -18z" />
<glyph unicode="&#xf3;" horiz-adv-x="1009" d="M68 328q0 97 25.5 197t75.5 190.5t117 161.5t157 113t188 42q109 0 186.5 -51t113.5 -133t36 -186q0 -96 -25 -194.5t-74 -188t-115.5 -159.5t-156.5 -111.5t-190 -41.5q-163 0 -250.5 102t-87.5 259zM311 356q0 -86 32 -135t93 -49q82 0 150 74.5t102.5 179.5t34.5 209 q0 85 -32.5 135.5t-94.5 50.5q-83 0 -150.5 -75t-101 -180t-33.5 -210zM434 1151l303 403h248l-403 -421z" />
<glyph unicode="&#xf4;" horiz-adv-x="1009" d="M68 328q0 97 25.5 197t75.5 190.5t117 161.5t157 113t188 42q109 0 186.5 -51t113.5 -133t36 -186q0 -96 -25 -194.5t-74 -188t-115.5 -159.5t-156.5 -111.5t-190 -41.5q-163 0 -250.5 102t-87.5 259zM311 356q0 -86 32 -135t93 -49q82 0 150 74.5t102.5 179.5t34.5 209 q0 85 -32.5 135.5t-94.5 50.5q-83 0 -150.5 -75t-101 -180t-33.5 -210zM340 1155l311 393h189l143 -393l-139 -25l-135 242l-236 -242z" />
<glyph unicode="&#xf5;" horiz-adv-x="1009" d="M68 328q0 97 25.5 197t75.5 190.5t117 161.5t157 113t188 42q109 0 186.5 -51t113.5 -133t36 -186q0 -96 -25 -194.5t-74 -188t-115.5 -159.5t-156.5 -111.5t-190 -41.5q-163 0 -250.5 102t-87.5 259zM311 356q0 -86 32 -135t93 -49q82 0 150 74.5t102.5 179.5t34.5 209 q0 85 -32.5 135.5t-94.5 50.5q-83 0 -150.5 -75t-101 -180t-33.5 -210zM322 1184q42 136 108.5 210t155.5 74q39 0 69.5 -13t50 -32t36.5 -37.5t36 -31.5t41 -13q68 0 107 119l104 -10q-41 -142 -109.5 -210.5t-148.5 -68.5q-44 0 -79.5 20t-54.5 43.5t-44 43.5t-51 20 q-42 0 -68.5 -29.5t-50.5 -97.5z" />
<glyph unicode="&#xf6;" horiz-adv-x="1009" d="M68 328q0 97 25.5 197t75.5 190.5t117 161.5t157 113t188 42q109 0 186.5 -51t113.5 -133t36 -186q0 -96 -25 -194.5t-74 -188t-115.5 -159.5t-156.5 -111.5t-190 -41.5q-163 0 -250.5 102t-87.5 259zM311 356q0 -86 32 -135t93 -49q82 0 150 74.5t102.5 179.5t34.5 209 q0 85 -32.5 135.5t-94.5 50.5q-83 0 -150.5 -75t-101 -180t-33.5 -210zM350 1313q12 60 53.5 96.5t90.5 36.5q50 0 75 -36t13 -97q-12 -59 -54 -97t-92 -38q-48 0 -73 38t-13 97zM752 1313q12 60 53 96.5t92 36.5q47 0 72.5 -36.5t13.5 -96.5q-12 -58 -54 -96.5t-89 -38.5 q-50 0 -75 37.5t-13 97.5z" />
<glyph unicode="&#xf7;" d="M90 473q21 105 45 213h909q-24 -108 -45 -213h-909zM352 135q0 74 47.5 126t110.5 52q45 0 71.5 -27.5t26.5 -72.5q0 -76 -49 -127t-113 -51q-43 0 -68.5 27t-25.5 73zM526 950q0 75 46.5 127.5t109.5 52.5q46 0 73 -28t27 -74q0 -74 -50 -125t-114 -51q-42 0 -67 26.5 t-25 71.5z" />
<glyph unicode="&#xf8;" horiz-adv-x="999" d="M37 -49l98 133q-72 93 -72 244q0 94 25.5 192.5t75.5 189.5t116.5 163.5t156.5 115.5t188 43t170 -43l88 121l98 -68l-98 -135q69 -97 69 -245q0 -93 -24.5 -190.5t-73.5 -187.5t-115 -161t-156 -113.5t-190 -42.5q-97 0 -170 39l-88 -121zM311 373q0 -23 4 -51 q49 70 336 477q-28 22 -63 22q-62 0 -116 -44.5t-88 -112.5t-53.5 -145t-19.5 -146zM365 190q30 -20 63 -20q61 0 115 44t88.5 111.5t54 144.5t19.5 146q0 12 -5 52z" />
<glyph unicode="&#xf9;" horiz-adv-x="1067" d="M66 201q0 60 16 135q26 111 75 331.5t74 331.5h238l-121 -550q-18 -79 -18 -154q0 -46 15.5 -65t47.5 -19q105 0 208 139.5t163 429.5l45 219h233l-118 -569q-39 -185 -39 -340q0 -50 6 -90h-234q0 107 23 264q-80 -138 -193 -217.5t-217 -79.5q-103 0 -153.5 62.5 t-50.5 171.5zM510 1554h238l131 -403l-144 -18z" />
<glyph unicode="&#xfa;" horiz-adv-x="1067" d="M66 201q0 60 16 135q26 111 75 331.5t74 331.5h238l-121 -550q-18 -79 -18 -154q0 -46 15.5 -65t47.5 -19q105 0 208 139.5t163 429.5l45 219h233l-118 -569q-39 -185 -39 -340q0 -50 6 -90h-234q0 107 23 264q-80 -138 -193 -217.5t-217 -79.5q-103 0 -153.5 62.5 t-50.5 171.5zM524 1151l303 403h248l-403 -421z" />
<glyph unicode="&#xfb;" horiz-adv-x="1067" d="M66 201q0 60 16 135q26 111 75 331.5t74 331.5h238l-121 -550q-18 -79 -18 -154q0 -46 15.5 -65t47.5 -19q105 0 208 139.5t163 429.5l45 219h233l-118 -569q-39 -185 -39 -340q0 -50 6 -90h-234q0 107 23 264q-80 -138 -193 -217.5t-217 -79.5q-103 0 -153.5 62.5 t-50.5 171.5zM369 1155l311 393h188l144 -393l-140 -25l-135 242l-235 -242z" />
<glyph unicode="&#xfc;" horiz-adv-x="1067" d="M66 201q0 60 16 135q26 111 75 331.5t74 331.5h238l-121 -550q-18 -79 -18 -154q0 -46 15.5 -65t47.5 -19q105 0 208 139.5t163 429.5l45 219h233l-118 -569q-39 -185 -39 -340q0 -50 6 -90h-234q0 107 23 264q-80 -138 -193 -217.5t-217 -79.5q-103 0 -153.5 62.5 t-50.5 171.5zM403 1313q12 60 53.5 96.5t90.5 36.5q50 0 75 -36t13 -97q-12 -59 -54 -97t-92 -38q-48 0 -73 38t-13 97zM805 1313q12 60 53 96.5t92 36.5q47 0 72.5 -36.5t13.5 -96.5q-12 -58 -54 -96.5t-89 -38.5q-50 0 -75 37.5t-13 97.5z" />
<glyph unicode="&#xfd;" horiz-adv-x="937" d="M-184 -487l49 219q19 -8 57 -8q87 0 170.5 74t138.5 177q-8 218 -43.5 525t-76.5 499h251q21 -145 41.5 -362t24.5 -375q92 164 186.5 369.5t155.5 367.5h248q-217 -479 -500 -954q-182 -304 -313 -420.5t-303 -116.5q-8 0 -86 5zM467 1151l303 403h248l-404 -421z" />
<glyph unicode="&#xfe;" horiz-adv-x="1058" d="M4 -465l268 1280q-81 -14 -184 -55q2 14 35 174q86 45 190 70l111 518l250 24q-17 -67 -60.5 -262.5t-56.5 -251.5q217 -3 335 -121t118 -317q0 -165 -69 -310t-186 -231t-251 -86q-95 0 -172 29q-45 -205 -86 -461h-242zM373 184q49 -26 127 -26q115 0 189.5 110.5 t74.5 272.5q0 150 -59 222.5t-193 72.5q-58 -259 -139 -652z" />
<glyph unicode="&#xff;" horiz-adv-x="937" d="M-184 -487l49 219q19 -8 57 -8q87 0 170.5 74t138.5 177q-8 218 -43.5 525t-76.5 499h251q21 -145 41.5 -362t24.5 -375q92 164 186.5 369.5t155.5 367.5h248q-217 -479 -500 -954q-182 -304 -313 -420.5t-303 -116.5q-8 0 -86 5zM317 1313q12 60 53.5 96.5t90.5 36.5 q50 0 75 -36t13 -97q-12 -59 -54 -97t-92 -38q-48 0 -73 38t-13 97zM719 1313q12 60 53 96.5t92 36.5q47 0 72.5 -36.5t13.5 -96.5q-12 -58 -54 -96.5t-89 -38.5q-50 0 -75 37.5t-13 97.5z" />
<glyph unicode="&#x152;" horiz-adv-x="2029" d="M139 537q0 129 42.5 263.5t123 254.5t185 214.5t239 150t275.5 55.5q101 0 204 -41h887l-53 -252q-108 15 -596 20q84 -145 84 -297q0 -21 -4 -71q238 3 372 12l-49 -234q-153 8 -370 11q-31 -111 -93 -211.5t-145 -171.5q480 4 670 20l-78 -260h-944q-122 -33 -215 -33 q-165 0 -287 73.5t-185 202t-63 294.5zM420 590q0 -170 84 -268.5t237 -98.5q114 0 212.5 56t163.5 146t101.5 201.5t36.5 225.5q0 170 -82.5 268.5t-234.5 98.5q-113 0 -212 -56t-165 -146t-103.5 -202t-37.5 -225z" />
<glyph unicode="&#x153;" horiz-adv-x="1503" d="M63 328q0 94 25.5 192.5t75.5 189.5t116.5 163.5t156.5 115.5t188 43q199 0 258 -198q78 92 178.5 145t212.5 53q108 0 167.5 -55t59.5 -146q0 -56 -20.5 -111.5t-67.5 -110.5t-114.5 -98.5t-169 -73.5t-224.5 -38q-2 -29 -2 -53q0 -86 52 -131t139 -45q142 0 254 53 l-27 -139q-147 -119 -336 -119q-93 0 -162 40.5t-104 117.5q-136 -156 -326 -156q-162 0 -246 101t-84 260zM307 356q0 -83 31 -134.5t90 -51.5q63 0 117.5 45.5t89.5 116t54.5 150.5t19.5 153q0 84 -30.5 135t-90.5 51q-83 0 -149.5 -77t-99 -182t-32.5 -206zM930 547 q164 19 254 86t90 137q0 30 -18.5 49t-51.5 19q-84 0 -164.5 -84t-109.5 -207z" />
<glyph unicode="&#x178;" horiz-adv-x="1189" d="M178 1434h283q110 -255 215 -584q238 324 461 584h278q-193 -222 -419 -503t-242 -329q-42 -178 -131 -602h-242l125 596q6 55 -106 334t-222 504zM530 1659q12 57 55 93t95 36q48 0 74 -36t14 -93q-10 -56 -52 -92.5t-91 -36.5q-51 0 -78 36t-17 93zM942 1659 q12 57 55 93t95 36q48 0 74 -36t14 -93q-10 -56 -52.5 -92.5t-93.5 -36.5q-50 0 -76 36t-16 93z" />
<glyph unicode="&#x2c6;" horiz-adv-x="870" d="M283 1155l311 393h188l144 -393l-140 -25l-135 242l-235 -242z" />
<glyph unicode="&#x2dc;" horiz-adv-x="915" d="M283 1184q42 136 108.5 210t155.5 74q39 0 69.5 -13t50 -32t36.5 -37.5t36 -31.5t41 -13q68 0 107 119l104 -10q-41 -142 -109.5 -210.5t-148.5 -68.5q-44 0 -79.5 20t-54.5 43.5t-44 43.5t-51 20q-42 0 -68.5 -29.5t-50.5 -97.5z" />
<glyph unicode="&#x2000;" horiz-adv-x="955" />
<glyph unicode="&#x2001;" horiz-adv-x="1911" />
<glyph unicode="&#x2002;" horiz-adv-x="955" />
<glyph unicode="&#x2003;" horiz-adv-x="1911" />
<glyph unicode="&#x2004;" horiz-adv-x="637" />
<glyph unicode="&#x2005;" horiz-adv-x="477" />
<glyph unicode="&#x2006;" horiz-adv-x="318" />
<glyph unicode="&#x2007;" horiz-adv-x="318" />
<glyph unicode="&#x2008;" horiz-adv-x="238" />
<glyph unicode="&#x2009;" horiz-adv-x="382" />
<glyph unicode="&#x200a;" horiz-adv-x="106" />
<glyph unicode="&#x2010;" horiz-adv-x="669" d="M109 444l51 242h440l-51 -242h-440z" />
<glyph unicode="&#x2011;" horiz-adv-x="669" d="M109 444l51 242h440l-51 -242h-440z" />
<glyph unicode="&#x2012;" horiz-adv-x="669" d="M109 444l51 242h440l-51 -242h-440z" />
<glyph unicode="&#x2013;" horiz-adv-x="1116" d="M66 389l47 219h954l-49 -219h-952z" />
<glyph unicode="&#x2014;" horiz-adv-x="1871" d="M63 389l48 219h1726l-47 -219h-1727z" />
<glyph unicode="&#x2018;" horiz-adv-x="577" d="M238 1049q139 322 317 593q23 -8 68 -25.5t69 -25.5q-151 -313 -217 -563q-117 12 -237 21z" />
<glyph unicode="&#x2019;" horiz-adv-x="577" d="M227 965q147 299 217 563q105 -11 238 -21q-131 -311 -317 -594q-24 8 -69.5 26t-68.5 26z" />
<glyph unicode="&#x201a;" horiz-adv-x="577" d="M-47 -328q145 302 215 561q172 -13 238 -20q-127 -301 -318 -592q-20 7 -65 24.5t-70 26.5z" />
<glyph unicode="&#x201c;" horiz-adv-x="970" d="M227 1038q129 307 318 594l137 -51q-149 -302 -215 -563zM639 1038q131 311 317 594l138 -51q-147 -299 -217 -563z" />
<glyph unicode="&#x201d;" horiz-adv-x="970" d="M227 965q147 299 217 563l238 -21q-131 -311 -317 -594zM639 965q149 302 215 563l240 -21q-129 -307 -318 -594z" />
<glyph unicode="&#x201e;" horiz-adv-x="970" d="M-47 -336q145 302 215 561q172 -13 238 -20q-127 -301 -318 -592q-20 7 -65 24.5t-70 26.5zM362 -336q150 304 216 561q156 -12 239 -20q-128 -305 -317 -592q-19 7 -65.5 24.5t-72.5 26.5z" />
<glyph unicode="&#x2022;" horiz-adv-x="1075" d="M221 520q11 103 70 197.5t152.5 154.5t195.5 60q125 0 198 -94t58 -230q-11 -103 -70 -198t-152.5 -155t-195.5 -60q-125 0 -198 94t-58 231z" />
<glyph unicode="&#x202f;" horiz-adv-x="382" />
<glyph unicode="&#x2039;" horiz-adv-x="919" d="M131 426l55 254l639 375l49 -133l-462 -373l305 -369l-109 -135z" />
<glyph unicode="&#x203a;" horiz-adv-x="919" d="M82 184q370 296 463 371l-307 371q22 25 61 74t45 57q256 -200 479 -377q-2 -9 -53 -254l-641 -379z" />
<glyph unicode="&#x205f;" horiz-adv-x="477" />
<glyph unicode="&#x20ac;" d="M137 467q0 148 38 294.5t111.5 274t173 226.5t230.5 156t275 57q115 0 221 -27l-60 -274q-94 55 -221 55q-240 0 -379 -271h406l-47 -129h-414q-42 -123 -49 -225h375l-49 -129h-324q19 -268 276 -268q129 0 244 53l-43 -188q-159 -107 -348 -107q-193 0 -304.5 136 t-111.5 366z" />
<glyph unicode="&#x25fc;" horiz-adv-x="1003" d="M0 0v1004h1004v-1004h-1004z" />
</font>
</defs>
</svg>
