<?xml version="1.0" standalone="no"?>
<!DOCTYPE svg PUBLIC "-//W3C//DTD SVG 1.1//EN" "http://www.w3.org/Graphics/SVG/1.1/DTD/svg11.dtd" >
<svg xmlns="http://www.w3.org/2000/svg" xmlns:xlink="http://www.w3.org/1999/xlink" version="1.1">
<metadata></metadata>
<defs>
<font id="anselm_sans_lightregular" horiz-adv-x="1136" >
<font-face units-per-em="2048" ascent="1638" descent="-410" />
<missing-glyph horiz-adv-x="516" />
<glyph unicode="&#x28;C&#x29;" horiz-adv-x="1767" d="M133 717q0 209 101.5 383t280 274.5t394.5 100.5q162 0 302.5 -57.5t240 -156.5t156.5 -237t57 -295t-57 -298t-156 -243.5t-240.5 -162.5t-302.5 -60q-216 0 -394.5 99.5t-280 272t-101.5 380.5zM272 721q0 -181 88.5 -329.5t235.5 -231t319 -82.5q173 0 313 83t220 230 t80 330q0 137 -49 257.5t-133 204.5t-200.5 132.5t-246.5 48.5q-127 0 -242.5 -49t-200 -133t-134.5 -204.5t-50 -256.5zM494 700q0 146 67.5 261t175 175t232.5 60q90 0 196 -39v-164q-104 58 -215 58q-73 0 -132 -27.5t-95.5 -73t-56 -101.5t-19.5 -116q0 -131 77.5 -215 t219.5 -84q116 0 221 62v-97q-40 -54 -110.5 -81t-157.5 -27q-179 0 -291 107t-112 302z" />
<glyph unicode="&#x28;R&#x29;" horiz-adv-x="1181" d="M137 1020q0 194 130 324.5t331 130.5q208 0 337.5 -128t129.5 -327q0 -124 -63 -230t-170.5 -167.5t-233.5 -61.5q-197 0 -329 128.5t-132 330.5zM240 1022q0 -171 98 -274t260 -103q107 0 193 51q-88 155 -201 279l-49 8q-4 -156 -4 -262h-91v600h156q101 0 157 -52 t56 -118q0 -113 -143 -156q140 -140 188 -252q109 125 109 279q0 165 -100 270t-271 105q-168 0 -263 -102t-95 -273zM541 1055q20 -4 49 -4q70 0 96.5 22t26.5 74q0 100 -121 100h-47z" />
<glyph unicode="&#x2e;&#x2e;&#x2e;" horiz-adv-x="2310" d="M293 100q0 50 29 79.5t81 29.5q51 0 83 -30t32 -79q0 -55 -31.5 -85.5t-83.5 -30.5q-50 0 -80 30.5t-30 85.5zM1063 100q0 50 30 79.5t81 29.5t82.5 -30t31.5 -79q0 -55 -31 -85.5t-83 -30.5q-50 0 -80.5 30.5t-30.5 85.5zM1831 100q0 50 30 79.5t81 29.5t82.5 -30 t31.5 -79q0 -55 -31 -85.5t-83 -30.5q-50 0 -80.5 30.5t-30.5 85.5z" />
<glyph unicode="&#x28;TM&#x29;" horiz-adv-x="1347" d="M137 1343v91h414v-91l-162 9l-6 -408h-84v408zM645 944l19 490h129l147 -336l150 336h124l21 -490h-94l-15 381q-15 -26 -43 -88t-68.5 -154t-51.5 -116h-54l-166 358q-1 -56 -6 -191.5t-6 -189.5h-86z" />
<glyph unicode="&#xfb01;" horiz-adv-x="1144" d="M49 870v113h176v154q0 86 30 160.5t88 132t151.5 91t212.5 33.5q132 0 264 -36v-160q-137 59 -291 59q-159 0 -234 -65t-75 -195v-174h297q164 0 323 27q-20 -211 -20 -1010h-140v870h-460q-6 -448 -6 -870h-140v870h-176z" />
<glyph unicode="&#xfb02;" horiz-adv-x="1155" d="M49 870v113h176v154q0 201 97.5 309t259.5 108q130 0 276 -67q55 39 143 51q-9 -117 -16.5 -584t-7.5 -954h-146v1374q-114 53 -239 53q-99 0 -157.5 -64t-59.5 -206v-174h260v-113h-262q-8 -520 -8 -870h-140v870h-176z" />
<glyph unicode="&#xfb03;" horiz-adv-x="1753" d="M49 870v113h176v154q0 189 83 302t249 113q35 0 78 -6v-131q-34 6 -64 6q-100 0 -148 -70.5t-48 -199.5v-168h459v154q0 86 30 160.5t87.5 132t151 91t212.5 33.5q132 0 264 -36v-160q-137 59 -291 59q-159 0 -234 -65t-75 -195v-174h297q164 0 323 27 q-20 -211 -20 -1010h-139v870h-461q-6 -448 -6 -870h-139v870h-461q-8 -520 -8 -870h-140v870h-176z" />
<glyph unicode="&#xfb04;" horiz-adv-x="1763" d="M49 870v113h176v154q0 189 83 302t249 113q35 0 78 -6v-131q-34 6 -64 6q-100 0 -148 -70.5t-48 -199.5v-168h459v147q0 202 97.5 312t258.5 110q134 0 276 -65q55 39 144 51q-15 -198 -23 -689t-8 -849h-139v1374q-110 51 -240 51q-99 0 -157.5 -66t-59.5 -208v-168h260 v-113h-262q-8 -520 -8 -870h-139v870h-461q-8 -520 -8 -870h-140v870h-176z" />
<glyph horiz-adv-x="0" />
<glyph horiz-adv-x="682" />
<glyph unicode=" "  horiz-adv-x="516" />
<glyph unicode="&#x09;" horiz-adv-x="516" />
<glyph unicode="&#xa0;" horiz-adv-x="516" />
<glyph unicode="!" horiz-adv-x="710" d="M250 100q0 50 29 79.5t81 29.5q51 0 83 -30t32 -79q0 -55 -31.5 -85.5t-83.5 -30.5q-50 0 -80 30.5t-30 85.5zM258 1554h207l-62 -1126h-92q-49 1058 -53 1126z" />
<glyph unicode="&#x22;" horiz-adv-x="776" d="M152 944l8 531h170l-90 -531h-88zM473 944l10 531h168l-90 -531h-88z" />
<glyph unicode="#" d="M55 416v119h240v333h-240v115h240v418h135v-418h277v418h131v-418h241v-115h-241v-333h241v-119h-241v-416h-131v416h-277v-416h-135v416h-240zM430 535h277v333h-277v-333z" />
<glyph unicode="$" d="M164 133v92q165 -84 379 -84v518q-142 73 -198 117q-140 110 -140 273q0 149 93.5 251.5t244.5 126.5v218h84v-207q141 0 278 -39v-172q-96 76 -278 76v-498q38 -21 55.5 -31t53.5 -31.5t54 -35t47.5 -37.5t45 -43.5t35 -48t29.5 -56.5t17 -62.5t7 -72.5 q0 -149 -95.5 -248.5t-248.5 -126.5v-239h-84v235q-212 0 -379 125zM360 1075q0 -127 183 -233v456q-87 -18 -135 -79.5t-48 -143.5zM627 150q87 24 137.5 83.5t50.5 143.5q0 75 -51 140t-137 110v-477z" />
<glyph unicode="%" horiz-adv-x="1605" d="M84 1077q0 171 93 283.5t226 112.5q136 0 232 -112t96 -284q0 -177 -96 -296t-232 -119q-132 0 -225.5 118.5t-93.5 296.5zM197 0l1052 1434h164l-1055 -1434h-161zM221 1077q0 -142 49.5 -222.5t135.5 -80.5t135 80.5t49 222.5q0 131 -49 208t-135 77t-135.5 -77 t-49.5 -208zM887 387q0 172 93 285.5t226 113.5q136 0 232 -112.5t96 -286.5q0 -177 -96 -294.5t-232 -117.5q-133 0 -226 117.5t-93 294.5zM1024 387q0 -140 49 -220.5t135 -80.5t135.5 80.5t49.5 220.5q0 134 -49.5 210.5t-135.5 76.5t-135 -76.5t-49 -210.5z" />
<glyph unicode="&#x26;" horiz-adv-x="1656" d="M115 297q0 76 27.5 144.5t80.5 126t112.5 103.5t139.5 93q-117 192 -117 375q0 154 100 245t253 91q129 0 213 -77t84 -214q0 -133 -81.5 -234.5t-254.5 -212.5q170 -251 334 -397q185 188 317 518h190q-176 -381 -399 -604q162 -135 318 -135q103 0 170 41v-105 q-83 -80 -207 -80q-109 0 -190 38t-214 134q-118 -86 -240 -129t-270 -43q-180 0 -273 87.5t-93 234.5zM295 330q0 -105 65.5 -158t176.5 -53q161 0 344 125q-93 84 -184 196t-156 222q-246 -150 -246 -332zM512 1155q0 -131 96 -321q117 74 179.5 155t62.5 185 q0 80 -43.5 121.5t-118.5 41.5q-79 0 -127.5 -48.5t-48.5 -133.5z" />
<glyph unicode="'" horiz-adv-x="468" d="M156 944l8 531h168l-90 -531h-86z" />
<glyph unicode="(" horiz-adv-x="927" d="M135 524q0 238 54 436t156 346t239.5 255t312.5 178l33 -80q-288 -127 -446 -414.5t-158 -720.5q0 -435 156.5 -723t447.5 -413l-33 -80q-175 71 -312.5 177.5t-239.5 254.5t-156 346.5t-54 437.5z" />
<glyph unicode=")" horiz-adv-x="927" d="M14 -610q288 128 446 415t158 721t-156.5 722t-447.5 413l31 80q140 -56 255.5 -134.5t210.5 -186t160.5 -239t101.5 -298t36 -357.5q0 -239 -54 -437.5t-156.5 -346t-240 -254.5t-313.5 -178z" />
<glyph unicode="*" horiz-adv-x="954" d="M102 1149q12 82 54 156l290 -156l-47 326q36 8 78 8q40 0 84 -13l-57 -321l297 147q42 -71 51 -153l-326 -47l232 -240q-62 -65 -135 -98l-148 301l-153 -295q-76 34 -129 96l235 234z" />
<glyph unicode="+" d="M113 455v123h399v401h133v-401h395v-123h-395v-400h-133v400h-399z" />
<glyph unicode="," horiz-adv-x="485" d="M96 -344q97 325 115 563h176q-89 -313 -211 -577z" />
<glyph unicode="-" horiz-adv-x="743" d="M145 483v146h465v-146h-465z" />
<glyph unicode="." horiz-adv-x="606" d="M197 100q0 50 29 79.5t81 29.5q51 0 82 -30t31 -79q0 -55 -30.5 -85.5t-82.5 -30.5q-51 0 -80.5 30.5t-29.5 85.5z" />
<glyph unicode="/" horiz-adv-x="897" d="M-131 -614q168 361 509 1072.5t519 1095.5h154q-176 -383 -517.5 -1094t-508.5 -1074h-156z" />
<glyph unicode="0" d="M109 737q0 174 35.5 315t98 233t146 141t180.5 49q202 0 331.5 -195t129.5 -543q0 -353 -131 -562.5t-330 -209.5t-329.5 209t-130.5 563zM272 735q0 -302 81 -468.5t216 -166.5q136 0 218.5 167.5t82.5 467.5q0 290 -82 447t-219 157q-136 0 -216.5 -156.5t-80.5 -447.5 z" />
<glyph unicode="1" d="M197 1151v149l536 183q-26 -419 -26 -1360h223v-123h-633v123h258v1159z" />
<glyph unicode="2" d="M86 61q196 138 341.5 272t232.5 254.5t129 227.5t42 205q0 151 -78.5 234t-228.5 83q-160 0 -297 -59v156q152 41 316 41q213 0 329.5 -116.5t116.5 -301.5q0 -114 -43 -232t-124.5 -234.5t-186 -226.5t-240.5 -227q374 0 623 17l-25 -154h-899z" />
<glyph unicode="3" d="M186 1292q3 27 11.5 72t11.5 70h782l10 -43q-95 -143 -222.5 -298t-233.5 -255q205 -1 321.5 -116t116.5 -292q0 -93 -30.5 -170.5t-82 -131t-120.5 -91t-146 -55t-158 -17.5q-129 0 -239 45v101q79 -25 219 -25q173 0 282 92t109 254q0 138 -83.5 214.5t-227.5 76.5 q-96 0 -182 -27l-25 72q109 76 253.5 241t231.5 298q-264 0 -598 -15z" />
<glyph unicode="4" d="M53 541q260 436 682 907q39 27 119 27v-863h236l-15 -120h-221v-492h-137v492h-654zM246 612h471v635q-111 -122 -246.5 -305t-224.5 -330z" />
<glyph unicode="5" d="M209 -20v110q35 -4 135 -4q228 0 350.5 100.5t122.5 257.5q0 78 -30 138t-77 96t-114 58.5t-132.5 31t-139.5 8.5q-30 0 -88 -4l92 662h628l-18 -138h-494l-59 -399q144 -2 257.5 -37.5t183.5 -95t106.5 -136t36.5 -163.5q0 -100 -41 -190t-116 -159t-190.5 -110 t-254.5 -41q-66 0 -158 15z" />
<glyph unicode="6" d="M137 496q0 133 33 263t99 248t156.5 213.5t213 162.5t262.5 92l39 -97q-127 -33 -234.5 -99t-182.5 -151.5t-125 -179t-76 -192.5q126 112 311 112q176 0 281.5 -123.5t105.5 -318.5q0 -126 -52 -229.5t-156 -167.5t-243 -64q-199 0 -315.5 132.5t-116.5 398.5zM293 434 q0 -163 78 -257.5t207 -94.5q136 0 211 87.5t75 242.5q0 167 -73 253.5t-209 86.5q-132 0 -210.5 -82.5t-78.5 -235.5z" />
<glyph unicode="7" d="M152 1280l18 154h887l8 -45q-73 -71 -183 -299.5t-216.5 -531t-161.5 -558.5h-172q92 361 239.5 719.5t286.5 578.5q-448 0 -706 -18z" />
<glyph unicode="8" d="M117 332q0 134 89.5 241t254.5 181q-145 81 -217 162t-72 198q0 154 118 257.5t296 103.5q181 0 296 -97t115 -241q0 -118 -78.5 -208.5t-224.5 -164.5q170 -94 248 -192.5t78 -227.5q0 -87 -38.5 -159.5t-103 -120t-147.5 -73.5t-174 -26q-122 0 -220.5 41.5t-159 126.5 t-60.5 199zM289 342q0 -118 79.5 -188t200.5 -70q123 0 201 71t78 181q0 52 -12 93.5t-33 73.5t-61 64t-82.5 58t-112.5 63q-133 -73 -195.5 -152t-62.5 -194zM336 1124q0 -99 57 -164.5t182 -134.5q58 29 100 56.5t79 63.5t56 81t19 98q0 107 -70 170.5t-173 63.5 q-112 0 -181 -62t-69 -172z" />
<glyph unicode="9" d="M129 1001q0 131 52.5 238t157 171.5t243.5 64.5q208 0 321 -145t113 -388q0 -138 -32.5 -272.5t-100 -257.5t-163 -219t-230.5 -157.5t-293 -72.5l-33 111q250 28 427 187.5t238 418.5q-165 -98 -305 -98q-178 0 -286.5 120.5t-108.5 298.5zM289 1024q0 -150 73 -234.5 t211 -84.5q154 0 277 90q18 83 18 147q0 190 -76 303t-225 113q-128 0 -203 -97t-75 -237z" />
<glyph unicode=":" horiz-adv-x="602" d="M199 100q0 50 29 79.5t81 29.5q51 0 82 -30t31 -79q0 -55 -30.5 -85.5t-82.5 -30.5q-51 0 -80.5 30.5t-29.5 85.5zM199 905q0 51 29 81t81 30q51 0 82 -30t31 -81q0 -52 -31 -83t-82 -31t-80.5 30.5t-29.5 83.5z" />
<glyph unicode=";" horiz-adv-x="583" d="M104 -344q97 325 115 563h176q-89 -313 -211 -577zM197 905q0 50 29.5 80.5t80.5 30.5q52 0 84.5 -30.5t32.5 -80.5q0 -53 -32 -83.5t-85 -30.5q-50 0 -80 30.5t-30 83.5z" />
<glyph unicode="&#x3c;" d="M174 500v102l774 449l31 -68l-551 -432l551 -430l-31 -74q-150 89 -418 245.5t-356 207.5z" />
<glyph unicode="=" d="M129 279v137h897v-137h-897zM129 649v137h897v-137h-897z" />
<glyph unicode="&#x3e;" d="M176 115l551 432l-551 430l33 74q154 -91 433.5 -254.5t338.5 -198.5v-102l-772 -449z" />
<glyph unicode="?" horiz-adv-x="880" d="M158 1276v172q150 43 286 43q182 0 279.5 -96.5t97.5 -249.5q0 -67 -22 -126t-57.5 -103.5t-78.5 -86t-85.5 -80.5t-78 -78.5t-57.5 -90t-22 -105.5q0 -31 4 -47h-84q-33 54 -33 111q0 48 18.5 93.5t47.5 83t64.5 75l71 75t64.5 76t47.5 85.5t18.5 97q0 106 -62 160.5 t-171 54.5t-248 -63zM293 100q0 50 28.5 79.5t81.5 29.5q51 0 82 -30t31 -79q0 -55 -30.5 -85.5t-82.5 -30.5q-50 0 -80 30.5t-30 85.5z" />
<glyph unicode="@" horiz-adv-x="1695" d="M139 453q0 203 93.5 367.5t257.5 257.5t364 93q172 0 255 -82t83 -251q0 -66 -9 -216.5t-9 -230.5q0 -110 22 -184h-121q-16 86 -16 201q-36 -114 -128.5 -183t-203.5 -69q-90 0 -145.5 52t-55.5 140q0 158 149 277t378 153q0 150 -48 213.5t-171 63.5 q-153 0 -279.5 -74.5t-200 -208t-73.5 -299.5q0 -137 44 -245.5t119.5 -175t171 -101.5t203.5 -35q98 0 191.5 26.5t176 80.5t145 130t98.5 182t36 230q0 222 -82 418h103q104 -197 104 -438q0 -144 -45 -268t-121.5 -211.5t-177 -150t-212.5 -92.5t-228 -30 q-132 0 -250 40.5t-212.5 119t-150 207.5t-55.5 293zM676 387q0 -104 106 -104q29 0 61 13.5t67 45t63.5 76.5t50.5 116t29 156q-167 -32 -272 -116t-105 -187z" />
<glyph unicode="A" horiz-adv-x="1345" d="M20 0q261 689 609 1450q52 23 133 23q235 -697 575 -1473h-196l-170 446h-613q-132 -372 -155 -446h-183zM403 567h527l-248 697q-174 -425 -279 -697z" />
<glyph unicode="B" horiz-adv-x="1236" d="M205 0v1434h334q244 0 372.5 -98.5t128.5 -260.5q0 -126 -82.5 -213.5t-226.5 -113.5q185 -25 279 -124t94 -243q0 -77 -30 -144t-91.5 -121t-166.5 -85t-243 -31h-368zM362 143q92 -6 203 -6q361 0 361 258q0 118 -97 197t-290 102q-67 6 -172 6q-5 -493 -5 -557z M369 813q66 -4 139 -4q184 0 272 54.5t88 185.5q0 127 -83 190.5t-267 63.5h-139q-10 -203 -10 -490z" />
<glyph unicode="C" horiz-adv-x="1351" d="M139 682q0 118 32.5 231.5t100 215.5t162.5 179t229 122t291 45q170 0 306 -31v-189q-125 64 -338 64q-143 0 -259.5 -51.5t-191 -139t-114.5 -200.5t-40 -240q0 -95 22.5 -179t70 -155.5t116.5 -123t167 -80.5t216 -29q200 0 351 74v-119q-133 -109 -381 -109 q-147 0 -269.5 38.5t-208.5 105t-145.5 157.5t-88 195.5t-28.5 218.5z" />
<glyph unicode="D" horiz-adv-x="1529" d="M205 0v1434h356q203 0 363.5 -56.5t261 -156t153 -229t52.5 -279.5q0 -115 -28.5 -219t-91 -195t-153.5 -157t-224 -104t-294 -38h-395zM362 127h199q168 0 295.5 45t203.5 125.5t113 183t37 224.5q0 174 -69.5 307t-212.5 212t-344 79h-205q-12 -350 -17 -1176z" />
<glyph unicode="E" horiz-adv-x="1161" d="M205 0v1434h782v-156q-139 14 -608 18q-8 -172 -12 -510q333 0 540 11v-135q-130 10 -540 10q-5 -241 -5 -533q459 4 697 21l-25 -160h-829z" />
<glyph unicode="F" horiz-adv-x="1024" d="M205 0v1434h782v-156q-133 14 -608 18q-9 -272 -12 -530q318 0 540 12v-135q-139 8 -540 8q-5 -233 -5 -651h-157z" />
<glyph unicode="G" horiz-adv-x="1458" d="M139 686q0 118 34 231.5t103 214.5t166.5 177.5t233.5 121t293 44.5q168 0 311 -31v-189q-151 66 -344 66q-143 0 -262 -52t-196 -139.5t-119 -200t-42 -235.5q0 -96 24 -182t73.5 -158.5t120 -125.5t169 -83t214.5 -30q103 0 225 32v508h178q-27 -304 -27 -559 q-139 -129 -397 -129q-182 0 -328.5 59.5t-239 160t-141.5 228.5t-49 271z" />
<glyph unicode="H" horiz-adv-x="1533" d="M205 0v1434h180q-9 -144 -16 -605q133 7 428 7q182 0 362 -5v603h180q-22 -304 -22 -1434h-158v702q-110 7 -330 7q-367 0 -462 -9q-5 -369 -5 -700h-157z" />
<glyph unicode="I" horiz-adv-x="579" d="M205 0v1434h180q-23 -297 -23 -1434h-157z" />
<glyph unicode="J" horiz-adv-x="589" d="M-139 -326q56 -26 139 -26q99 0 158 52.5t59 158.5v1575h178q-20 -289 -20 -1590q0 -168 -92 -258t-222 -90q-108 0 -200 70v108z" />
<glyph unicode="K" horiz-adv-x="1306" d="M205 0v1434h180q-13 -162 -20 -697q103 60 263 233t396 464h199q-470 -554 -656 -680q209 -154 703 -754h-223q-155 211 -363.5 433.5t-318.5 297.5q-3 -430 -3 -731h-157z" />
<glyph unicode="L" horiz-adv-x="1073" d="M205 0v1434h180q-11 -210 -23 -1291q495 4 711 21l-24 -164h-844z" />
<glyph unicode="M" horiz-adv-x="1869" d="M184 0q13 191 29 695.5t16 738.5h226q337 -736 483 -1147q264 572 489 1147h213q0 -230 15.5 -733.5t30.5 -700.5h-166l-27 1239q-291 -698 -508 -1135q-23 -30 -115 -30q-215 568 -499 1165l-21 -1239h-166z" />
<glyph unicode="N" horiz-adv-x="1536" d="M205 0v1434h196q469 -636 773 -1135v1135h167q-24 -312 -24 -1434q0 -23 -103 -23q-177 288 -413 634.5t-445 625.5v-1237h-151z" />
<glyph unicode="O" horiz-adv-x="1832" d="M139 711q0 154 61 295t165 244t249.5 164t305.5 61t303.5 -57.5t246.5 -156.5t163.5 -237t60.5 -293q0 -156 -61.5 -297.5t-166 -244t-249 -162.5t-304.5 -60q-161 0 -304.5 57.5t-246.5 156.5t-163 237t-60 293zM322 719q0 -172 82 -313.5t219.5 -220.5t300.5 -79 q122 0 231 46.5t187.5 127.5t124.5 195t46 244q0 131 -48 246.5t-130 196.5t-193 128t-233 47q-163 0 -297.5 -79.5t-212 -221.5t-77.5 -317z" />
<glyph unicode="P" horiz-adv-x="1153" d="M205 0v1434h336q258 0 393 -114t135 -296q0 -185 -127.5 -300.5t-359.5 -115.5q-76 0 -217 23q-3 -276 -3 -631h-157zM367 748q76 -13 131 -13q207 0 301 69.5t94 205.5q0 137 -93.5 215t-285.5 78h-135q-8 -192 -12 -555z" />
<glyph unicode="Q" horiz-adv-x="1832" d="M139 711q0 154 61 295t165 244t249.5 164t305.5 61t303.5 -57.5t246.5 -156.5t163.5 -237t60.5 -293q0 -141 -50 -270.5t-137 -228t-208 -166t-259 -89.5q108 -112 299.5 -246t302.5 -175q-59 -48 -120 -48q-54 0 -115 25q-241 106 -582 438q-194 19 -351 120.5t-246 264 t-89 355.5zM322 719q0 -172 82 -313.5t219.5 -220.5t300.5 -79q122 0 231 46.5t187.5 127.5t124.5 195t46 244q0 131 -48 246.5t-130 196.5t-193 128t-233 47q-163 0 -297.5 -79.5t-212 -221.5t-77.5 -317z" />
<glyph unicode="R" horiz-adv-x="1302" d="M205 0v1434h342q256 0 388 -110t132 -286q0 -147 -96 -244t-277 -124q252 -244 570 -670h-220q-89 135 -212 287.5t-215 248t-113 97.5q-61 0 -137 12q-5 -244 -5 -645h-157zM369 758q74 -10 147 -10q193 0 284 73t91 201q0 134 -90 209.5t-279 75.5h-141 q-8 -182 -12 -549z" />
<glyph unicode="S" horiz-adv-x="1099" d="M139 96v99q78 -39 170 -64t172 -25q140 0 220.5 62t80.5 180q0 50 -23 97t-65 86.5t-84 69t-98 61.5q-138 80 -191 125q-143 118 -143 284q0 181 128 292.5t319 111.5q127 0 256 -39v-189q-103 82 -271 82q-128 0 -197 -61.5t-69 -169.5q0 -47 22.5 -91t65.5 -82.5 t84 -67t98 -62.5q48 -29 70.5 -43t66 -44t66 -51.5t53 -57t46 -69t27 -77.5t11.5 -93q0 -121 -61.5 -212t-161 -136t-221.5 -45q-109 0 -205 36t-166 93z" />
<glyph unicode="T" horiz-adv-x="1208" d="M0 1280v154h1208v-154q-140 14 -510 18q-18 -453 -18 -1298h-156v1300q-363 -4 -524 -20z" />
<glyph unicode="U" horiz-adv-x="1525" d="M197 1434h174v-904q0 -111 31.5 -193.5t88 -130t127.5 -70.5t158 -23q391 0 391 440v881h166q-5 -106 -9.5 -424.5t-4.5 -489.5q0 -112 -31.5 -204.5t-86 -156t-128.5 -107.5t-157.5 -64.5t-174.5 -20.5q-112 0 -206.5 31.5t-168 93.5t-115.5 163.5t-42 233.5 q0 186 -4 520t-8 425z" />
<glyph unicode="V" horiz-adv-x="1345" d="M39 1434h186q315 -795 453 -1235q293 724 467 1235h170q-329 -879 -588 -1442q-16 -19 -127 -19q-282 823 -561 1461z" />
<glyph unicode="W" horiz-adv-x="1959" d="M29 1434h182q234 -722 354 -1223q191 526 359 1145h127q160 -452 352 -1145q250 747 371 1223h165q-223 -775 -479 -1442v2q-15 -18 -143 -21q-172 653 -332 1119q-193 -664 -360 -1100v2q-15 -18 -144 -21q-87 305 -137 477.5t-142.5 466t-172.5 517.5z" />
<glyph unicode="X" horiz-adv-x="1435" d="M31 0q190 247 600 743q-415 515 -551 691h205q154 -218 442 -572q282 344 459 572h174q-193 -256 -545 -682q361 -446 590 -752h-207q-193 278 -479 635q-337 -413 -506 -635h-182z" />
<glyph unicode="Y" horiz-adv-x="1251" d="M20 1434h203q173 -232 416 -627q229 373 418 627h174q-151 -201 -333 -475.5t-185 -311.5q-6 -262 -6 -647h-154v639q0 40 -174 301.5t-359 493.5z" />
<glyph unicode="Z" horiz-adv-x="1380" d="M82 49q80 89 460.5 587t501.5 669q-676 -5 -868 -27v156h1114l8 -52q-50 -58 -471 -613.5t-491 -637.5q625 9 962 35l-26 -166h-1186z" />
<glyph unicode="[" horiz-adv-x="964" d="M319 -653v2398h762v-98h-606v-2202h606v-98h-762z" />
<glyph unicode="\" horiz-adv-x="897" d="M-129 1554h152l1028 -2168h-152z" />
<glyph unicode="]" horiz-adv-x="964" d="M-121 -555h606v2202h-606v98h762v-2398h-762v98z" />
<glyph unicode="^" d="M119 719l395 772h127q66 -130 197 -386t196 -386l-82 -31l-372 604q-53 -86 -116.5 -189t-140.5 -226t-118 -189z" />
<glyph unicode="_" horiz-adv-x="1439" d="M35 -254h1395v-113h-1395v113z" />
<glyph unicode="`" horiz-adv-x="800" d="M426 1554h158l256 -415l-86 -6z" />
<glyph unicode="a" horiz-adv-x="1036" d="M129 203q0 159 153.5 271.5t444.5 143.5v74q0 195 -217 195q-149 0 -293 -66v146q172 49 322 49q157 0 244 -74t87 -225q0 -70 -5 -220.5t-5 -234.5q0 -140 35 -262h-135q-21 107 -21 199q-69 -126 -157.5 -175t-210.5 -49q-116 0 -179 59t-63 169zM293 236 q0 -134 139 -134q30 0 65 11t76 41t74 75t55.5 120.5t24.5 170.5q-434 -66 -434 -284z" />
<glyph unicode="b" horiz-adv-x="1220" d="M156 -33q12 150 12 328v1241l170 14q-25 -329 -25 -682q92 76 179.5 112t191.5 36q133 0 232 -66.5t147.5 -174.5t48.5 -240q0 -86 -20 -167.5t-61.5 -154.5t-100 -127.5t-142.5 -86.5t-182 -32q-113 0 -193 40t-149 114q-24 -73 -39 -154h-69zM313 455q0 -182 71 -275.5 t224 -93.5q159 0 252.5 113.5t93.5 308.5q0 183 -85 278t-251 95q-83 0 -163.5 -32.5t-141.5 -86.5v-307z" />
<glyph unicode="c" horiz-adv-x="929" d="M92 438q0 129 45.5 239t121 183.5t174 114.5t204.5 41q128 0 221 -41v-154q-112 62 -252 62q-93 0 -165 -33t-115.5 -91.5t-65.5 -133t-22 -162.5q0 -171 103 -261.5t259 -90.5q133 0 258 61v-90q-48 -50 -130 -82.5t-175 -32.5q-206 0 -333.5 124t-127.5 347z" />
<glyph unicode="d" horiz-adv-x="1216" d="M92 449q0 108 32.5 208t93 181t159.5 129.5t221 48.5q157 0 293 -103v623l166 14q-25 -323 -25 -1284q0 -145 25 -266h-107q-15 72 -18 133q-96 -91 -194 -128.5t-218 -37.5q-133 0 -231.5 67t-147.5 175t-49 240zM250 475q0 -182 86.5 -276.5t251.5 -94.5q84 0 163 31 t140 84v307q0 182 -70.5 275.5t-224.5 93.5q-159 0 -252.5 -113t-93.5 -307z" />
<glyph unicode="e" horiz-adv-x="1007" d="M92 434q0 259 148.5 420.5t375.5 161.5q149 0 234.5 -83t85.5 -204q0 -112 -53 -182l-635 20q-10 -65 -10 -118q0 -155 92 -247.5t241 -92.5q194 0 312 67v-86q-60 -59 -148.5 -91t-181.5 -32q-209 0 -335 124t-126 343zM270 668h521v12q0 217 -207 217 q-101 0 -185 -59.5t-129 -169.5z" />
<glyph unicode="f" horiz-adv-x="659" d="M49 870v113h176v154q0 189 83 302t249 113q35 0 78 -6v-131q-34 6 -64 6q-100 0 -148 -70.5t-48 -199.5v-168h260v-113h-262q-8 -520 -8 -870h-140v870h-176z" />
<glyph unicode="g" horiz-adv-x="1181" d="M104 -266q0 98 69 182.5t183 124.5q-95 3 -143.5 40.5t-48.5 104.5q0 70 47.5 127.5t142.5 83.5q-166 75 -166 277q0 143 104.5 242.5t285.5 99.5q52 0 166 -18.5t180 -18.5q121 0 229 6v-115q-167 0 -317 13q60 -32 92.5 -95.5t32.5 -148.5q0 -140 -105 -226.5 t-266 -86.5q-21 0 -64 2t-61 2q-77 0 -122.5 -28.5t-45.5 -76.5q0 -46 32 -67t111 -21q45 0 147.5 6.5t164.5 6.5q163 0 241 -53t78 -179q0 -175 -165.5 -292.5t-422.5 -117.5q-379 0 -379 226zM266 -217q0 -75 65 -112.5t185 -37.5q180 0 289.5 69t109.5 189 q0 76 -47.5 107t-144.5 31q-142 0 -244 -13q-213 -89 -213 -233zM346 668q0 -118 65 -177t177 -59q104 0 164.5 60.5t60.5 171.5q0 107 -64 174t-171 67t-169.5 -63t-62.5 -174z" />
<glyph unicode="h" horiz-adv-x="1112" d="M168 0v1536l168 14q-21 -272 -25 -643q176 109 351 109q138 0 221.5 -89.5t83.5 -273.5v-653h-146v631q0 252 -231 252q-68 0 -143.5 -20t-129.5 -58q-4 -293 -4 -805h-145z" />
<glyph unicode="i" horiz-adv-x="522" d="M158 1376q0 44 30.5 75.5t73.5 31.5q44 0 75.5 -31.5t31.5 -75.5t-31 -74t-76 -30q-43 0 -73.5 30t-30.5 74zM170 0v985l160 25q-21 -222 -21 -1010h-139z" />
<glyph unicode="j" horiz-adv-x="522" d="M-178 -344q50 -27 139 -27q95 0 152 59t57 177v1120l160 25q-21 -222 -21 -1172q0 -160 -84.5 -245t-204.5 -85q-130 0 -198 74v74zM158 1376q0 44 30.5 75.5t73.5 31.5q44 0 75.5 -31.5t31.5 -75.5t-31 -74t-76 -30q-43 0 -73.5 30t-30.5 74z" />
<glyph unicode="k" horiz-adv-x="962" d="M168 0v1536l168 14q-19 -266 -27 -1028q83 65 217 208t207 253h166q-254 -313 -412 -446q83 -68 214.5 -232t218.5 -305h-185q-26 71 -181 258.5t-245 259.5q-2 -209 -2 -518h-139z" />
<glyph unicode="l" horiz-adv-x="489" d="M168 0v1536l168 14q-15 -197 -22 -683t-7 -867h-139z" />
<glyph unicode="m" horiz-adv-x="1628" d="M137 983h99q15 -30 26 -113q99 71 176 108.5t160 37.5q74 0 127.5 -28.5t99.5 -90.5q64 52 157 85.5t177 33.5q135 0 217 -89.5t82 -273.5v-653h-141v631q0 134 -60.5 194t-160.5 60q-129 0 -238 -74q25 -77 25 -158v-653h-142v631q0 133 -54 193.5t-142 60.5 q-116 0 -236 -82v-803h-141v758q0 118 -31 225z" />
<glyph unicode="n" horiz-adv-x="1110" d="M135 983h101q13 -33 24 -113q105 75 192.5 110.5t188.5 35.5q138 0 222.5 -89.5t84.5 -273.5v-653h-141v631q0 134 -62.5 194t-169.5 60q-64 0 -137 -22.5t-129 -61.5v-801h-141v758q0 112 -33 225z" />
<glyph unicode="o" horiz-adv-x="1169" d="M92 487q0 231 137.5 380t356.5 149q222 0 356.5 -147.5t134.5 -381.5q0 -230 -137.5 -375t-355.5 -145q-221 0 -356.5 145.5t-135.5 374.5zM254 487q0 -185 91.5 -292t246.5 -107q158 0 239.5 102t81.5 293q0 192 -89.5 300t-245.5 108q-158 0 -241 -104t-83 -300z" />
<glyph unicode="p" horiz-adv-x="1187" d="M143 983h103q21 -61 24 -143q75 81 177.5 128.5t218.5 47.5q105 0 188.5 -38.5t135.5 -105.5t79 -153t27 -184q0 -109 -32 -209.5t-92 -181t-156 -129t-214 -48.5q-175 0 -295 129v-561h-155q16 204 16 553v668q0 141 -25 227zM309 446q0 -177 77 -270.5t218 -93.5 q149 0 240.5 113.5t91.5 304.5q0 177 -79 278t-243 101q-89 0 -169.5 -33t-135.5 -86v-314z" />
<glyph unicode="q" horiz-adv-x="1183" d="M92 449q0 108 32.5 208t93 181t159.5 129.5t221 48.5q201 0 328 -131q41 61 57 131h68q-15 -188 -15 -328v-1153h-155q12 184 12 578q-92 -76 -180.5 -112t-192.5 -36q-132 0 -231 67.5t-148 176t-49 240.5zM246 473q0 -183 86 -278t250 -95q82 0 164 36t145 91v308 q0 181 -72 272.5t-227 91.5q-158 0 -252 -115.5t-94 -310.5z" />
<glyph unicode="r" horiz-adv-x="686" d="M119 983h106q26 -54 35 -152q132 185 303 185q55 0 111 -23v-137q-64 23 -119 23q-125 0 -246 -111v-768h-141v649q0 200 -49 334z" />
<glyph unicode="s" horiz-adv-x="811" d="M104 66v88q126 -72 263 -72q92 0 140 39.5t48 111.5q0 29 -11.5 54.5t-26 43.5t-44.5 38.5t-49.5 31.5t-58.5 31q-47 24 -70.5 37t-62.5 41.5t-58.5 54.5t-35 66.5t-15.5 87.5q0 123 93 210t226 87q114 0 209 -31v-156q-99 54 -207 54q-84 0 -129 -38.5t-45 -105.5 q0 -28 12 -53t25 -41t46 -38.5t49 -31.5t59 -32q46 -24 71 -39t63 -43.5t58.5 -55t36 -66t15.5 -85.5q0 -136 -94.5 -211.5t-233.5 -75.5q-165 0 -273 99z" />
<glyph unicode="t" horiz-adv-x="768" d="M49 870v113h176v274l158 33q-10 -154 -10 -307h323v-113h-325q-6 -208 -6 -587q0 -99 37.5 -139t117.5 -40q102 0 176 41v-79q-104 -99 -250 -99q-109 0 -165 67t-56 216v620h-176z" />
<glyph unicode="u" horiz-adv-x="1110" d="M158 330v653h141v-631q0 -254 231 -254q65 0 138 22.5t129 61.5v801h141v-758q0 -112 33 -225h-101q-13 33 -24 113q-105 -75 -192.5 -110.5t-188.5 -35.5q-138 0 -222.5 89.5t-84.5 273.5z" />
<glyph unicode="v" horiz-adv-x="940" d="M25 983h165q68 -169 152.5 -407.5t126.5 -391.5q196 499 279 799h151q-211 -593 -369 -977q-6 -16 -35 -22.5t-100 -6.5q-75 254 -177.5 537t-192.5 469z" />
<glyph unicode="w" horiz-adv-x="1562" d="M29 983h166q58 -140 135.5 -374t128.5 -416q210 563 274 790h107q171 -463 262 -793q190 495 266 793h152q-173 -527 -353 -977q-6 -16 -33 -22.5t-98 -6.5q-96 350 -256 775q-124 -386 -266 -746q-6 -16 -32.5 -22.5t-96.5 -6.5q-74 255 -172 537.5t-184 468.5z" />
<glyph unicode="x" horiz-adv-x="999" d="M33 0q220 257 397 496q-130 178 -377 487h187l274 -373q125 177 244 373h162q-183 -276 -328 -473q177 -244 358 -510h-184q-138 224 -260 395q-173 -231 -303 -395h-170z" />
<glyph unicode="y" horiz-adv-x="942" d="M25 983h168q197 -501 276 -801q75 190 155.5 418.5t123.5 382.5h151q-201 -596 -575 -1448h-160q61 136 227 475q-62 208 -168.5 495t-197.5 478z" />
<glyph unicode="z" horiz-adv-x="962" d="M63 47q101 113 303.5 380.5t315.5 432.5q-212 -3 -329 -10t-214 -23v156h754l6 -39q-23 -29 -287 -394.5t-315 -428.5q420 4 590 22l-21 -143h-796z" />
<glyph unicode="{" horiz-adv-x="1054" d="M182 504v84h43q82 0 136.5 23t84 70t41 105t11.5 140q0 50 -7.5 157t-7.5 168q0 94 16.5 168t59.5 140.5t111.5 111t177.5 70t254 26.5v-86q-96 -2 -169.5 -17.5t-123 -44.5t-82.5 -65t-50.5 -86.5t-24.5 -101t-7 -115.5q0 -58 10.5 -179.5t10.5 -188.5q0 -290 -260 -328 q71 -10 122.5 -42t80 -80.5t41 -103.5t12.5 -120q0 -57 -9.5 -177.5t-9.5 -187.5t7 -118t24.5 -102t50.5 -86.5t83 -64t124 -43.5t170 -16v-86q-144 1 -252.5 26t-177.5 68t-111.5 108.5t-59 139t-16.5 166.5q0 50 7.5 159t7.5 173q0 80 -11.5 137.5t-41 104.5t-85 70.5 t-137.5 23.5h-43z" />
<glyph unicode="|" horiz-adv-x="763" d="M307 -635v2314h150v-2314h-150z" />
<glyph unicode="}" horiz-adv-x="1054" d="M-37 -586q96 2 169.5 17.5t123 44.5t82.5 65t50.5 86.5t24.5 101t7 115.5q0 58 -10.5 180t-10.5 189q0 290 260 328q-71 10 -122.5 42t-80 80.5t-41 103.5t-12.5 120q0 57 9.5 177t9.5 187q0 81 -9.5 142t-39 121t-79 98.5t-133 63t-198.5 26.5v86q120 0 216 -18.5 t163 -54t114 -81.5t73.5 -107t38.5 -125.5t12 -141.5q0 -50 -7.5 -159t-7.5 -173q0 -80 11.5 -137.5t41 -104.5t85 -70.5t137.5 -23.5h43v-84h-43q-82 0 -136.5 -23t-84 -70t-41 -105t-11.5 -140q0 -50 7.5 -157.5t7.5 -168.5q0 -94 -16.5 -168t-59.5 -140.5t-111.5 -111 t-177.5 -70t-254 -26.5v86z" />
<glyph unicode="~" d="M150 494q5 137 70.5 221t170.5 84q51 0 103 -25.5t88.5 -55.5t88.5 -55.5t103 -25.5q67 0 108 45.5t48 136.5l76 -8q-9 -133 -72 -216t-162 -83q-44 0 -87 16.5t-78 39.5t-69 46t-74 39.5t-79 16.5q-73 0 -114.5 -50.5t-49.5 -138.5z" />
<glyph unicode="&#xa1;" horiz-adv-x="710" d="M252 901q0 52 32 83.5t83 31.5q50 0 80 -31.5t30 -83.5q0 -51 -29.5 -80.5t-80.5 -29.5q-52 0 -83.5 30t-31.5 80zM262 -553l62 1126h90q9 -220 29 -605.5t26 -520.5h-207z" />
<glyph unicode="&#xa2;" d="M197 907q0 221 117.5 370.5t306.5 190.5v224h94v-215q165 0 268 -43v-156q-60 31 -118.5 44t-149.5 13v-737q162 0 268 59v-79q-40 -50 -110 -83t-158 -40v-215h-94v215q-197 11 -310.5 130.5t-113.5 321.5zM348 940q0 -130 69 -227.5t204 -110.5v721q-273 -56 -273 -383 z" />
<glyph unicode="&#xa3;" d="M121 664v120h172q-37 127 -37 242q0 137 64.5 240t173 156t245.5 53q169 0 297 -41v-177q-142 74 -295 74q-152 0 -238.5 -81.5t-86.5 -221.5q0 -96 35 -244h428v-120h-396q27 -170 27 -199q0 -142 -86 -326q481 3 623 23l-23 -162h-809q77 144 111 233.5t34 180.5 q0 111 -36 250h-203z" />
<glyph unicode="&#xa4;" d="M-23 1202l107 105l213 -236q133 96 274 96q148 0 277 -98l207 229l100 -98l-229 -217q75 -136 75 -270q0 -132 -73 -271q178 -164 231 -211l-104 -106l-207 223q-126 -102 -277 -102t-280 104q-26 -28 -98.5 -108t-108.5 -119q-20 20 -52 54.5t-52 53.5l235 209 q-74 132 -74 273q0 142 76 268zM285 713q0 -159 78.5 -248.5t207.5 -89.5q130 0 211.5 89.5t81.5 248.5q0 152 -82 239.5t-211 87.5t-207.5 -86.5t-78.5 -240.5z" />
<glyph unicode="&#xa5;" d="M-45 1434h201q210 -277 426 -619q207 334 419 619h179q-336 -434 -492 -699h346v-100h-377q-2 -49 -2 -213h299v-100h-301v-322h-155v322h-301v100h301v213h-387v100h350q-34 53 -68.5 105t-75.5 109.5t-69.5 97t-77.5 104.5t-69.5 92.5t-76 100t-69.5 90.5z" />
<glyph unicode="&#xa6;" horiz-adv-x="763" d="M307 252h150v-887h-150v887zM307 793v886h150v-886h-150z" />
<glyph unicode="&#xa7;" horiz-adv-x="1396" d="M150 825q0 128 40 236t109 183.5t161 128t195 77.5t213 25q144 0 256 -33v-180q-104 55 -225 55q-122 0 -187 -56.5t-65 -187.5q0 -67 22 -126t58.5 -105.5t84.5 -90t101 -83.5t105.5 -80.5t100.5 -87t84.5 -98t58.5 -118.5t22 -143q0 -125 -39 -231t-105 -179 t-153.5 -124t-182.5 -75t-194 -24q-225 0 -374 117v86q120 -69 272 -69q278 0 278 270q0 67 -22 125.5t-58.5 103.5t-84.5 86.5t-100.5 80l-105 77t-100.5 84t-84.5 96t-58.5 117t-22 143.5zM309 881q0 -69 21 -130.5t57 -109t82.5 -91.5t97.5 -83.5t102.5 -79t98 -84.5 t82.5 -94t57 -112.5t21 -135.5q0 -73 -20.5 -151.5t-59.5 -124.5q289 132 289 421q0 88 -34.5 163t-90 130.5t-123 106.5t-134.5 101.5t-122.5 105t-90 128.5t-34.5 160q0 84 23 164t65 129q-150 -69 -218.5 -167.5t-68.5 -245.5z" />
<glyph unicode="&#xa8;" horiz-adv-x="985" d="M203 1311q0 42 27 68t67 26q39 0 64.5 -26t25.5 -68q0 -43 -26 -71t-64 -28q-40 0 -67 28t-27 71zM614 1311q0 42 27 68t68 26q38 0 64 -26t26 -68t-26.5 -70.5t-63.5 -28.5q-40 0 -67.5 28.5t-27.5 70.5z" />
<glyph unicode="&#xaa;" horiz-adv-x="806" d="M104 1057q0 118 117 203t334 108v47q0 129 -154 129q-116 0 -227 -53v131q127 39 248 39q120 0 186 -56.5t66 -172.5q0 -48 -3 -155.5t-3 -174.5q0 -98 30 -201h-114q-15 61 -21 156q-94 -174 -266 -174q-92 0 -142.5 44.5t-50.5 129.5zM248 1081q0 -90 92 -90q22 0 46 7 t53.5 27t53 51t40.5 85t20 123q-305 -56 -305 -203z" />
<glyph unicode="&#xab;" horiz-adv-x="1490" d="M143 424v102l641 385l25 -65l-451 -371l451 -371l-25 -69zM702 424v102l639 385l29 -63l-452 -373l452 -373l-29 -67z" />
<glyph unicode="&#xac;" horiz-adv-x="1185" d="M106 492v143h963v-635h-141v492h-822z" />
<glyph unicode="&#xad;" horiz-adv-x="743" d="M145 483v146h465v-146h-465z" />
<glyph unicode="&#xaf;" horiz-adv-x="960" d="M219 1262v114h529v-114h-529z" />
<glyph unicode="&#xb0;" horiz-adv-x="1017" d="M154 1081q0 168 101 281t253 113q155 0 255.5 -111.5t100.5 -282.5t-102.5 -282t-255.5 -111t-252.5 111t-99.5 282zM305 1081q0 -117 57.5 -197.5t147.5 -80.5q94 0 147.5 77t53.5 197t-59.5 199.5t-151.5 79.5q-91 0 -143 -77t-52 -198z" />
<glyph unicode="&#xb1;" d="M113 0v123h929v-123h-929zM115 680v125h399v401h133v-401h395v-125h-395v-397h-133v397h-399z" />
<glyph unicode="&#xb2;" horiz-adv-x="802" d="M74 969q461 232 461 450q0 160 -191 160q-91 0 -192 -33v119q105 21 208 21q146 0 226 -68t80 -178q0 -114 -90.5 -226t-251.5 -202q225 0 360 6l-16 -117h-582z" />
<glyph unicode="&#xb3;" horiz-adv-x="802" d="M141 1550l15 111h532l14 -49q-154 -158 -284 -260q129 -12 197.5 -73t68.5 -151q0 -116 -91 -183.5t-249 -67.5q-122 0 -197 41v81q74 -26 191 -26q99 0 154 38.5t55 110.5q0 135 -182 135q-69 0 -134 -18l-22 64q187 120 297 256q-202 0 -365 -9z" />
<glyph unicode="&#xb4;" horiz-adv-x="800" d="M199 1139l256 415h157l-327 -421z" />
<glyph unicode="&#xb5;" horiz-adv-x="1138" d="M158 -489q18 136 34.5 352.5t16.5 349.5q-23 273 -23 496q0 58 9 274h163q-7 -298 -26 -639q0 -233 186 -233q87 0 153.5 44t137.5 148q-10 229 -10 680h159q-11 -354 -30 -651q0 -102 9 -150t27.5 -64t59.5 -16q35 0 94 23v-96q-83 -62 -168 -62q-81 0 -108 42.5 t-27 170.5q-85 -122 -158 -167.5t-178 -45.5q-92 0 -168 70v-492z" />
<glyph unicode="&#xb6;" horiz-adv-x="1193" d="M129 983q0 91 32 171t94.5 143t165.5 99.5t234 37.5h342v-1434h-192q22 384 22 1313h-127l-26 -727q-61 -17 -117 -17q-210 0 -319 110t-109 304z" />
<glyph unicode="&#xb7;" d="M446 526q0 56 37 93.5t92 37.5q57 0 96.5 -38t39.5 -93q0 -58 -39.5 -97.5t-96.5 -39.5q-54 0 -91.5 39.5t-37.5 97.5z" />
<glyph unicode="&#xb8;" horiz-adv-x="907" d="M305 -463l27 66q68 -21 141 -21q77 0 120.5 29.5t43.5 83.5q0 57 -49.5 83.5t-177.5 26.5l92 195h90l-66 -117q238 0 238 -184q0 -83 -74.5 -137t-197.5 -54q-107 0 -187 29z" />
<glyph unicode="&#xb9;" horiz-adv-x="802" d="M152 1483v125l378 92q-14 -222 -14 -799h-129v647z" />
<glyph unicode="&#xba;" horiz-adv-x="933" d="M80 1266q0 170 109.5 282.5t277.5 112.5q171 0 279 -111t108 -284q0 -169 -111 -279t-278 -110q-168 0 -276.5 110t-108.5 279zM225 1266q0 -133 67.5 -211t180.5 -78t172.5 75.5t59.5 211.5q0 138 -64.5 215t-179.5 77t-175.5 -75t-60.5 -215z" />
<glyph unicode="&#xbb;" horiz-adv-x="1490" d="M147 102l453 371l-453 371l27 71l639 -391v-102l-639 -385zM707 102l450 371l-450 371l26 71l639 -391v-102l-639 -385z" />
<glyph unicode="&#xbc;" horiz-adv-x="1656" d="M152 1255v125l378 93q-14 -222 -14 -799h-129v647zM215 0l1053 1434h164l-1055 -1434h-162zM793 258q175 227 460 516q12 12 84 12v-473h150l-10 -106h-140v-207h-118v207h-418zM961 313h258v293q-144 -144 -258 -293z" />
<glyph unicode="&#xbd;" horiz-adv-x="1656" d="M152 1255v125l378 93q-14 -222 -14 -799h-129v647zM215 0l1053 1434h164l-1055 -1434h-162zM975 68q461 232 461 450q0 160 -191 160q-91 0 -192 -33v119q100 20 209 20q146 0 225.5 -67.5t79.5 -177.5q0 -114 -90.5 -226t-251.5 -202q225 0 360 6l-16 -117h-582z" />
<glyph unicode="&#xbe;" horiz-adv-x="1656" d="M182 1323l15 111h532l14 -50q-154 -158 -284 -260q129 -12 197.5 -72.5t68.5 -150.5q0 -116 -91 -184t-249 -68q-122 0 -197 41v82q77 -27 191 -27q99 0 154 39t55 111q0 135 -182 135q-70 0 -134 -18l-22 63q187 120 297 256q-220 0 -365 -8zM287 0l1052 1434h164 l-1054 -1434h-162zM793 258q175 227 460 516q12 12 84 12v-473h150l-10 -106h-140v-207h-118v207h-418zM961 313h258v293q-144 -144 -258 -293z" />
<glyph unicode="&#xbf;" horiz-adv-x="880" d="M121 -143q0 67 22 126t58 103.5t78.5 85.5t85.5 80t79 78.5t58 90t22 105.5q0 31 -4 45h84q33 -51 33 -108q0 -63 -34.5 -125t-83.5 -114l-98 -104t-83.5 -116t-34.5 -129q0 -105 63.5 -160t172.5 -55t247 66v-172q-149 -46 -288 -46q-182 0 -279.5 97t-97.5 252z M426 901q0 53 32 85t83 32q50 0 80 -31.5t30 -85.5q0 -50 -29 -80t-81 -30q-51 0 -83 30.5t-32 79.5z" />
<glyph unicode="&#xc0;" horiz-adv-x="1345" d="M20 0q261 689 609 1450q52 23 133 23q235 -697 575 -1473h-196l-170 446h-613q-132 -372 -155 -446h-183zM403 567h527l-248 697q-174 -425 -279 -697zM469 1864h166l246 -328l-86 -10z" />
<glyph unicode="&#xc1;" horiz-adv-x="1345" d="M20 0q261 689 609 1450q52 23 133 23q235 -697 575 -1473h-196l-170 446h-613q-132 -372 -155 -446h-183zM403 567h527l-248 697q-174 -425 -279 -697zM543 1536l245 328h166l-325 -338z" />
<glyph unicode="&#xc2;" horiz-adv-x="1345" d="M20 0q261 689 609 1450q52 23 133 23q235 -697 575 -1473h-196l-170 446h-613q-132 -372 -155 -446h-183zM401 1530l238 323h131l236 -323l-78 -14l-230 217l-227 -217zM403 567h527l-248 697q-174 -425 -279 -697z" />
<glyph unicode="&#xc3;" horiz-adv-x="1345" d="M20 0q261 689 609 1450q52 23 133 23q235 -697 575 -1473h-196l-170 446h-613q-132 -372 -155 -446h-183zM344 1567q6 110 61 183t144 73q43 0 87 -22t75.5 -48t74.5 -48t84 -22q52 0 78.5 37t34.5 113l76 -8q-8 -116 -59.5 -185t-139.5 -69q-42 0 -84.5 21.5t-72.5 47 t-71.5 47t-82.5 21.5q-64 0 -93.5 -37t-35.5 -115zM403 567h527l-248 697q-174 -425 -279 -697z" />
<glyph unicode="&#xc4;" horiz-adv-x="1345" d="M20 0q261 689 609 1450q52 23 133 23q235 -697 575 -1473h-196l-170 446h-613q-132 -372 -155 -446h-183zM391 1647q0 41 28 69.5t68 28.5t67.5 -28.5t27.5 -69.5t-27.5 -69t-67.5 -28t-68 28t-28 69zM403 567h527l-248 697q-174 -425 -279 -697zM817 1647q0 41 28 69.5 t68 28.5t68.5 -28.5t28.5 -69.5t-28.5 -69t-68.5 -28t-68 28t-28 69z" />
<glyph unicode="&#xc5;" horiz-adv-x="1345" d="M20 0q261 689 609 1450q52 23 133 23q235 -697 575 -1473h-196l-170 446h-613q-132 -372 -155 -446h-183zM403 567h527l-248 697q-174 -425 -279 -697zM461 1679q0 86 65 144.5t162 58.5q95 0 159 -58.5t64 -144.5q0 -88 -64 -146t-159 -58q-98 0 -162.5 58.5 t-64.5 145.5zM563 1677q0 -55 35 -88t90 -33q56 0 87.5 31t31.5 86q0 57 -35 90t-90 33q-57 0 -88 -31t-31 -88z" />
<glyph unicode="&#xc6;" horiz-adv-x="2023" d="M-90 0q603 810 1106 1411q9 10 46 16.5t79 6.5h706v-156q-156 16 -600 16q-8 -169 -12 -512q329 0 532 11v-127q-130 10 -532 10q-4 -193 -4 -537q448 4 690 21l-27 -160h-821v446h-637q-280 -382 -325 -446h-201zM522 567h551v717q-255 -322 -551 -717z" />
<glyph unicode="&#xc7;" horiz-adv-x="1351" d="M139 682q0 118 32.5 231.5t100 215.5t162.5 179t229 122t291 45q170 0 306 -31v-189q-125 64 -338 64q-143 0 -259.5 -51.5t-191 -139t-114.5 -200.5t-40 -240q0 -95 22.5 -179t70 -155.5t116.5 -123t167 -80.5t216 -29q200 0 351 74v-119q-133 -109 -381 -109 q-147 0 -269.5 38.5t-208.5 105t-145.5 157.5t-88 195.5t-28.5 218.5zM662 -463l26 66q68 -21 141 -21q77 0 120.5 29.5t43.5 83.5q0 57 -49.5 83.5t-177.5 26.5l92 195h90l-65 -117q237 0 237 -184q0 -83 -74.5 -137t-197.5 -54q-106 0 -186 29z" />
<glyph unicode="&#xc8;" horiz-adv-x="1161" d="M205 0v1434h782v-156q-139 14 -608 18q-8 -172 -12 -510q333 0 540 11v-135q-130 10 -540 10q-5 -241 -5 -533q459 4 697 21l-25 -160h-829zM375 1864h166l245 -328l-86 -10z" />
<glyph unicode="&#xc9;" horiz-adv-x="1161" d="M205 0v1434h782v-156q-139 14 -608 18q-8 -172 -12 -510q333 0 540 11v-135q-130 10 -540 10q-5 -241 -5 -533q459 4 697 21l-25 -160h-829zM455 1536l245 328h166l-325 -338z" />
<glyph unicode="&#xca;" horiz-adv-x="1161" d="M205 0v1434h782v-156q-139 14 -608 18q-8 -172 -12 -510q333 0 540 11v-135q-130 10 -540 10q-5 -241 -5 -533q459 4 697 21l-25 -160h-829zM328 1530l237 323h131l236 -323l-78 -14l-229 217l-228 -217z" />
<glyph unicode="&#xcb;" horiz-adv-x="1161" d="M205 0v1434h782v-156q-139 14 -608 18q-8 -172 -12 -510q333 0 540 11v-135q-130 10 -540 10q-5 -241 -5 -533q459 4 697 21l-25 -160h-829zM324 1647q0 41 28 69.5t68 28.5t67 -28.5t27 -69.5t-27 -69t-67 -28t-68 28t-28 69zM750 1647q0 41 28 69.5t68 28.5t68 -28.5 t28 -69.5t-28 -69t-68 -28t-68 28t-28 69z" />
<glyph unicode="&#xcc;" horiz-adv-x="579" d="M78 1864h166l245 -328l-86 -10zM205 0v1434h180q-23 -297 -23 -1434h-157z" />
<glyph unicode="&#xcd;" horiz-adv-x="579" d="M143 1536l246 328h166l-326 -338zM205 0v1434h180q-23 -297 -23 -1434h-157z" />
<glyph unicode="&#xce;" horiz-adv-x="579" d="M-2 1530l238 323h131l235 -323l-78 -14l-229 217l-227 -217zM205 0v1434h180q-23 -297 -23 -1434h-157z" />
<glyph unicode="&#xcf;" horiz-adv-x="579" d="M-4 1647q0 41 28 69.5t68 28.5t67 -28.5t27 -69.5t-27 -69t-67 -28t-68 28t-28 69zM205 0v1434h180q-23 -297 -23 -1434h-157zM422 1647q0 41 28 69.5t68 28.5t68 -28.5t28 -69.5t-28 -69t-68 -28t-68 28t-28 69z" />
<glyph unicode="&#xd0;" horiz-adv-x="1538" d="M86 700v101h131v633h348q164 0 301 -37t234.5 -103t165.5 -156.5t100.5 -197.5t32.5 -227q0 -115 -29 -219t-92 -195t-154.5 -157t-224 -104t-293.5 -38h-389v700h-131zM375 127h190q168 0 296 45t204.5 125.5t114 183t37.5 224.5q0 173 -70 306.5t-213.5 212.5 t-343.5 79h-199q-7 -211 -10 -502h254v-101h-256q-4 -394 -4 -573z" />
<glyph unicode="&#xd1;" horiz-adv-x="1536" d="M205 0v1434h196q469 -636 773 -1135v1135h167q-24 -312 -24 -1434q0 -23 -103 -23q-177 288 -413 634.5t-445 625.5v-1237h-151zM432 1567q6 110 61 183t144 73q43 0 87 -22t75.5 -48t74.5 -48t84 -22q52 0 78.5 37t34.5 113l76 -8q-8 -116 -59.5 -185t-139.5 -69 q-42 0 -84.5 21.5t-72.5 47t-71.5 47t-82.5 21.5q-64 0 -93.5 -37t-35.5 -115z" />
<glyph unicode="&#xd2;" horiz-adv-x="1832" d="M139 711q0 154 61 295t165 244t249.5 164t305.5 61t303.5 -57.5t246.5 -156.5t163.5 -237t60.5 -293q0 -156 -61.5 -297.5t-166 -244t-249 -162.5t-304.5 -60q-161 0 -304.5 57.5t-246.5 156.5t-163 237t-60 293zM322 719q0 -172 82 -313.5t219.5 -220.5t300.5 -79 q122 0 231 46.5t187.5 127.5t124.5 195t46 244q0 131 -48 246.5t-130 196.5t-193 128t-233 47q-163 0 -297.5 -79.5t-212 -221.5t-77.5 -317zM717 1864h166l245 -328l-86 -10z" />
<glyph unicode="&#xd3;" horiz-adv-x="1832" d="M139 711q0 154 61 295t165 244t249.5 164t305.5 61t303.5 -57.5t246.5 -156.5t163.5 -237t60.5 -293q0 -156 -61.5 -297.5t-166 -244t-249 -162.5t-304.5 -60q-161 0 -304.5 57.5t-246.5 156.5t-163 237t-60 293zM322 719q0 -172 82 -313.5t219.5 -220.5t300.5 -79 q122 0 231 46.5t187.5 127.5t124.5 195t46 244q0 131 -48 246.5t-130 196.5t-193 128t-233 47q-163 0 -297.5 -79.5t-212 -221.5t-77.5 -317zM727 1536l246 328h166l-326 -338z" />
<glyph unicode="&#xd4;" horiz-adv-x="1832" d="M139 711q0 154 61 295t165 244t249.5 164t305.5 61t303.5 -57.5t246.5 -156.5t163.5 -237t60.5 -293q0 -156 -61.5 -297.5t-166 -244t-249 -162.5t-304.5 -60q-161 0 -304.5 57.5t-246.5 156.5t-163 237t-60 293zM322 719q0 -172 82 -313.5t219.5 -220.5t300.5 -79 q122 0 231 46.5t187.5 127.5t124.5 195t46 244q0 131 -48 246.5t-130 196.5t-193 128t-233 47q-163 0 -297.5 -79.5t-212 -221.5t-77.5 -317zM614 1530l238 323h131l236 -323l-78 -14l-230 217l-227 -217z" />
<glyph unicode="&#xd5;" horiz-adv-x="1832" d="M139 711q0 154 61 295t165 244t249.5 164t305.5 61t303.5 -57.5t246.5 -156.5t163.5 -237t60.5 -293q0 -156 -61.5 -297.5t-166 -244t-249 -162.5t-304.5 -60q-161 0 -304.5 57.5t-246.5 156.5t-163 237t-60 293zM322 719q0 -172 82 -313.5t219.5 -220.5t300.5 -79 q122 0 231 46.5t187.5 127.5t124.5 195t46 244q0 131 -48 246.5t-130 196.5t-193 128t-233 47q-163 0 -297.5 -79.5t-212 -221.5t-77.5 -317zM559 1567q6 110 61 183t144 73q43 0 87 -22t75.5 -48t74.5 -48t84 -22q52 0 78.5 37t34.5 113l76 -8q-8 -116 -59.5 -185 t-139.5 -69q-42 0 -84.5 21.5t-72.5 47t-71.5 47t-82.5 21.5q-64 0 -93.5 -37t-35.5 -115z" />
<glyph unicode="&#xd6;" horiz-adv-x="1832" d="M139 711q0 154 61 295t165 244t249.5 164t305.5 61t303.5 -57.5t246.5 -156.5t163.5 -237t60.5 -293q0 -156 -61.5 -297.5t-166 -244t-249 -162.5t-304.5 -60q-161 0 -304.5 57.5t-246.5 156.5t-163 237t-60 293zM322 719q0 -172 82 -313.5t219.5 -220.5t300.5 -79 q122 0 231 46.5t187.5 127.5t124.5 195t46 244q0 131 -48 246.5t-130 196.5t-193 128t-233 47q-163 0 -297.5 -79.5t-212 -221.5t-77.5 -317zM612 1647q0 41 28.5 69.5t68.5 28.5t67 -28.5t27 -69.5t-27 -69t-67 -28t-68.5 28t-28.5 69zM1038 1647q0 41 28.5 69.5t68.5 28.5 t68 -28.5t28 -69.5t-28 -69t-68 -28t-68.5 28t-28.5 69z" />
<glyph unicode="&#xd7;" d="M207 211l280 283l-280 282l90 92l285 -282l278 280l88 -86l-282 -280l284 -283l-94 -92l-281 283l-282 -283z" />
<glyph unicode="&#xd8;" horiz-adv-x="1832" d="M139 711q0 154 61 295t165 244t249.5 164t305.5 61q196 0 366 -86l131 204l78 -45l-131 -205q153 -100 241.5 -260.5t88.5 -351.5q0 -156 -61.5 -297.5t-166 -244t-249 -162.5t-304.5 -60q-198 0 -372 88l-152 -237l-78 47l152 235q-151 101 -237.5 261t-86.5 350z M322 719q0 -148 60 -273t167 -210l655 1024q-138 77 -295 77q-163 0 -297.5 -79.5t-212 -221.5t-77.5 -317zM623 184q138 -78 301 -78q122 0 231 46.5t187.5 127.5t124.5 195t46 244q0 152 -62.5 279t-172.5 212z" />
<glyph unicode="&#xd9;" horiz-adv-x="1525" d="M197 1434h174v-904q0 -111 31.5 -193.5t88 -130t127.5 -70.5t158 -23q391 0 391 440v881h166q-5 -106 -9.5 -424.5t-4.5 -489.5q0 -112 -31.5 -204.5t-86 -156t-128.5 -107.5t-157.5 -64.5t-174.5 -20.5q-112 0 -206.5 31.5t-168 93.5t-115.5 163.5t-42 233.5 q0 186 -4 520t-8 425zM512 1864h166l246 -328l-86 -10z" />
<glyph unicode="&#xda;" horiz-adv-x="1525" d="M197 1434h174v-904q0 -111 31.5 -193.5t88 -130t127.5 -70.5t158 -23q391 0 391 440v881h166q-5 -106 -9.5 -424.5t-4.5 -489.5q0 -112 -31.5 -204.5t-86 -156t-128.5 -107.5t-157.5 -64.5t-174.5 -20.5q-112 0 -206.5 31.5t-168 93.5t-115.5 163.5t-42 233.5 q0 186 -4 520t-8 425zM618 1536l246 328h166l-325 -338z" />
<glyph unicode="&#xdb;" horiz-adv-x="1525" d="M197 1434h174v-904q0 -111 31.5 -193.5t88 -130t127.5 -70.5t158 -23q391 0 391 440v881h166q-5 -106 -9.5 -424.5t-4.5 -489.5q0 -112 -31.5 -204.5t-86 -156t-128.5 -107.5t-157.5 -64.5t-174.5 -20.5q-112 0 -206.5 31.5t-168 93.5t-115.5 163.5t-42 233.5 q0 186 -4 520t-8 425zM465 1530l237 323h132l235 -323l-78 -14l-229 217l-227 -217z" />
<glyph unicode="&#xdc;" horiz-adv-x="1525" d="M197 1434h174v-904q0 -111 31.5 -193.5t88 -130t127.5 -70.5t158 -23q391 0 391 440v881h166q-5 -106 -9.5 -424.5t-4.5 -489.5q0 -112 -31.5 -204.5t-86 -156t-128.5 -107.5t-157.5 -64.5t-174.5 -20.5q-112 0 -206.5 31.5t-168 93.5t-115.5 163.5t-42 233.5 q0 186 -4 520t-8 425zM461 1647q0 41 28 69.5t68 28.5t67 -28.5t27 -69.5t-27 -69t-67 -28t-68 28t-28 69zM887 1647q0 41 28 69.5t68 28.5t68 -28.5t28 -69.5t-28 -69t-68 -28t-68 28t-28 69z" />
<glyph unicode="&#xdd;" horiz-adv-x="1251" d="M20 1434h203q173 -232 416 -627q229 373 418 627h174q-151 -201 -333 -475.5t-185 -311.5q-6 -262 -6 -647h-154v639q0 40 -174 301.5t-359 493.5zM528 1536l246 328h166l-326 -338z" />
<glyph unicode="&#xde;" horiz-adv-x="1155" d="M205 0v1434h180q-6 -64 -10 -281h166q258 0 394 -114t136 -296q0 -184 -128 -295.5t-361 -111.5q-91 0 -220 22v-358h-157zM365 457q118 -11 133 -11q395 0 395 283q0 136 -93.5 213.5t-285.5 77.5h-143q-6 -255 -6 -563z" />
<glyph unicode="&#xdf;" horiz-adv-x="1077" d="M168 0v1065q0 206 116 335.5t316 129.5q173 0 265.5 -97.5t92.5 -252.5q0 -90 -39.5 -179.5t-107.5 -148.5q-73 12 -115.5 -24t-42.5 -101q0 -58 33 -106t79.5 -84t93 -74.5t79.5 -97t33 -132.5q0 -67 -24 -119.5t-63.5 -83.5t-86 -47t-95.5 -16q-120 0 -206 90v76 q84 -53 180 -53q69 0 109 39t40 110q0 39 -17.5 73t-45 60.5t-61 52t-66.5 53.5t-60.5 60t-45 77.5t-17.5 99.5q0 116 79.5 190t203.5 68q36 80 36 172q0 73 -24 132.5t-81.5 99.5t-141.5 40q-120 0 -193 -80.5t-76 -239.5q-8 -562 -8 -1087h-139z" />
<glyph unicode="&#xe0;" horiz-adv-x="1036" d="M129 203q0 159 153.5 271.5t444.5 143.5v74q0 195 -217 195q-149 0 -293 -66v146q172 49 322 49q157 0 244 -74t87 -225q0 -70 -5 -220.5t-5 -234.5q0 -140 35 -262h-135q-21 107 -21 199q-69 -126 -157.5 -175t-210.5 -49q-116 0 -179 59t-63 169zM293 236 q0 -134 139 -134q30 0 65 11t76 41t74 75t55.5 120.5t24.5 170.5q-434 -66 -434 -284zM295 1554h158l256 -415l-86 -6z" />
<glyph unicode="&#xe1;" horiz-adv-x="1036" d="M129 203q0 159 153.5 271.5t444.5 143.5v74q0 195 -217 195q-149 0 -293 -66v146q172 49 322 49q157 0 244 -74t87 -225q0 -70 -5 -220.5t-5 -234.5q0 -140 35 -262h-135q-21 107 -21 199q-69 -126 -157.5 -175t-210.5 -49q-116 0 -179 59t-63 169zM293 236 q0 -134 139 -134q30 0 65 11t76 41t74 75t55.5 120.5t24.5 170.5q-434 -66 -434 -284zM397 1139l256 415h158l-328 -421z" />
<glyph unicode="&#xe2;" horiz-adv-x="1036" d="M129 203q0 159 153.5 271.5t444.5 143.5v74q0 195 -217 195q-149 0 -293 -66v146q172 49 322 49q157 0 244 -74t87 -225q0 -70 -5 -220.5t-5 -234.5q0 -140 35 -262h-135q-21 107 -21 199q-69 -126 -157.5 -175t-210.5 -49q-116 0 -179 59t-63 169zM215 1151l248 403h131 l248 -403l-88 -21l-232 308l-229 -308zM293 236q0 -134 139 -134q30 0 65 11t76 41t74 75t55.5 120.5t24.5 170.5q-434 -66 -434 -284z" />
<glyph unicode="&#xe3;" horiz-adv-x="1036" d="M129 203q0 159 153.5 271.5t444.5 143.5v74q0 195 -217 195q-149 0 -293 -66v146q172 49 322 49q157 0 244 -74t87 -225q0 -70 -5 -220.5t-5 -234.5q0 -140 35 -262h-135q-21 107 -21 199q-69 -126 -157.5 -175t-210.5 -49q-116 0 -179 59t-63 169zM203 1214 q14 105 60 169.5t118 64.5q39 0 80.5 -20t72 -43.5t66.5 -43.5t64 -20q76 0 96 121l71 -6q-12 -110 -60 -170t-114 -60q-37 0 -76.5 20t-67.5 43.5t-64 43.5t-66 20q-47 0 -72.5 -28t-34.5 -97zM293 236q0 -134 139 -134q30 0 65 11t76 41t74 75t55.5 120.5t24.5 170.5 q-434 -66 -434 -284z" />
<glyph unicode="&#xe4;" horiz-adv-x="1036" d="M129 203q0 159 153.5 271.5t444.5 143.5v74q0 195 -217 195q-149 0 -293 -66v146q172 49 322 49q157 0 244 -74t87 -225q0 -70 -5 -220.5t-5 -234.5q0 -140 35 -262h-135q-21 107 -21 199q-69 -126 -157.5 -175t-210.5 -49q-116 0 -179 59t-63 169zM223 1311q0 42 27 68 t67 26q39 0 65 -26t26 -68t-26.5 -70.5t-64.5 -28.5q-40 0 -67 28t-27 71zM293 236q0 -134 139 -134q30 0 65 11t76 41t74 75t55.5 120.5t24.5 170.5q-434 -66 -434 -284zM635 1311q0 42 27 68t67 26q38 0 64 -26t26 -68t-26.5 -70.5t-63.5 -28.5q-40 0 -67 28t-27 71z" />
<glyph unicode="&#xe5;" horiz-adv-x="1036" d="M129 203q0 159 153.5 271.5t444.5 143.5v74q0 195 -217 195q-149 0 -293 -66v146q172 49 322 49q157 0 244 -74t87 -225q0 -70 -5 -220.5t-5 -234.5q0 -140 35 -262h-135q-21 107 -21 199q-69 -126 -157.5 -175t-210.5 -49q-116 0 -179 59t-63 169zM293 236 q0 -134 139 -134q30 0 65 11t76 41t74 75t55.5 120.5t24.5 170.5q-434 -66 -434 -284zM297 1348q0 94 64.5 157.5t158.5 63.5t156.5 -63t62.5 -158t-63 -158.5t-156 -63.5q-96 0 -159.5 64t-63.5 158zM393 1346q0 -60 35.5 -97t91.5 -37q57 0 89 34.5t32 94.5 q0 64 -35.5 104t-91.5 40q-58 0 -89.5 -37.5t-31.5 -101.5z" />
<glyph unicode="&#xe6;" horiz-adv-x="1636" d="M129 203q0 159 153.5 271.5t444.5 143.5v74q0 195 -217 195q-149 0 -293 -66v146q172 49 322 49q121 0 205.5 -56t109.5 -153q59 92 165 150.5t226 58.5q149 0 234.5 -83t85.5 -204q0 -110 -54 -182l-630 26q-15 -59 -15 -124q0 -155 94 -247.5t244 -92.5q191 0 309 67 v-84q-61 -60 -146.5 -92.5t-176.5 -32.5q-166 0 -276.5 70t-151.5 201q-85 -153 -176.5 -208t-214.5 -55q-116 0 -179 59t-63 169zM293 236q0 -134 139 -134q30 0 65 11t76 41t74 75t55.5 120.5t24.5 170.5q-434 -66 -434 -284zM899 668h520q6 231 -207 231 q-100 0 -184 -60.5t-129 -170.5z" />
<glyph unicode="&#xe7;" horiz-adv-x="929" d="M92 438q0 129 45.5 239t121 183.5t174 114.5t204.5 41q128 0 221 -41v-154q-112 62 -252 62q-93 0 -165 -33t-115.5 -91.5t-65.5 -133t-22 -162.5q0 -171 103 -261.5t259 -90.5q133 0 258 61v-90q-48 -50 -130 -82.5t-175 -32.5q-206 0 -333.5 124t-127.5 347zM332 -463 l26 66q68 -21 142 -21q77 0 120.5 29.5t43.5 83.5q0 57 -50 83.5t-178 26.5l92 195h90l-65 -117q238 0 238 -184q0 -83 -75 -137t-198 -54q-106 0 -186 29z" />
<glyph unicode="&#xe8;" horiz-adv-x="1007" d="M92 434q0 259 148.5 420.5t375.5 161.5q149 0 234.5 -83t85.5 -204q0 -112 -53 -182l-635 20q-10 -65 -10 -118q0 -155 92 -247.5t241 -92.5q194 0 312 67v-86q-60 -59 -148.5 -91t-181.5 -32q-209 0 -335 124t-126 343zM270 668h521q6 229 -207 229q-101 0 -185 -59.5 t-129 -169.5zM354 1554h158l256 -415l-86 -6z" />
<glyph unicode="&#xe9;" horiz-adv-x="1007" d="M92 434q0 259 148.5 420.5t375.5 161.5q149 0 234.5 -83t85.5 -204q0 -112 -53 -182l-635 20q-10 -65 -10 -118q0 -155 92 -247.5t241 -92.5q194 0 312 67v-86q-60 -59 -148.5 -91t-181.5 -32q-209 0 -335 124t-126 343zM270 668h521q6 229 -207 229q-101 0 -185 -59.5 t-129 -169.5zM412 1139l256 415h157l-327 -421z" />
<glyph unicode="&#xea;" horiz-adv-x="1007" d="M92 434q0 259 148.5 420.5t375.5 161.5q149 0 234.5 -83t85.5 -204q0 -112 -53 -182l-635 20q-10 -65 -10 -118q0 -155 92 -247.5t241 -92.5q194 0 312 67v-86q-60 -59 -148.5 -91t-181.5 -32q-209 0 -335 124t-126 343zM270 668h521q6 229 -207 229q-101 0 -185 -59.5 t-129 -169.5zM287 1151l248 403h131l247 -403l-88 -21l-231 308l-229 -308z" />
<glyph unicode="&#xeb;" horiz-adv-x="1007" d="M92 434q0 259 148.5 420.5t375.5 161.5q149 0 234.5 -83t85.5 -204q0 -112 -53 -182l-635 20q-10 -65 -10 -118q0 -155 92 -247.5t241 -92.5q194 0 312 67v-86q-60 -59 -148.5 -91t-181.5 -32q-209 0 -335 124t-126 343zM270 668h521q6 229 -207 229q-101 0 -185 -59.5 t-129 -169.5zM287 1311q0 42 27 68t67 26q39 0 64.5 -26t25.5 -68q0 -43 -26 -71t-64 -28q-40 0 -67 28t-27 71zM698 1311q0 42 27 68t68 26q38 0 64 -26t26 -68t-26.5 -70.5t-63.5 -28.5q-40 0 -67.5 28.5t-27.5 70.5z" />
<glyph unicode="&#xec;" horiz-adv-x="518" d="M23 1554h157l256 -415l-86 -6zM193 0v985q34 4 95.5 14t71.5 11q-22 -232 -22 -1010h-145z" />
<glyph unicode="&#xed;" horiz-adv-x="518" d="M135 1139l256 415h158l-328 -421zM193 0v985q34 4 95.5 14t71.5 11q-22 -232 -22 -1010h-145z" />
<glyph unicode="&#xee;" horiz-adv-x="518" d="M-41 1151l248 403h131l248 -403l-88 -21l-232 308l-229 -308zM193 0v985q34 4 95.5 14t71.5 11q-22 -232 -22 -1010h-145z" />
<glyph unicode="&#xef;" horiz-adv-x="518" d="M-29 1311q0 42 27 68t68 26q39 0 64.5 -26t25.5 -68q0 -43 -26 -71t-64 -28q-40 0 -67.5 28.5t-27.5 70.5zM193 0v985q34 4 95.5 14t71.5 11q-22 -232 -22 -1010h-145zM383 1311q0 42 27 68t67 26q38 0 64 -26t26 -68t-26.5 -70.5t-63.5 -28.5q-40 0 -67 28t-27 71z" />
<glyph unicode="&#xf0;" horiz-adv-x="1155" d="M92 487q0 154 66 271.5t173.5 178t237.5 60.5q196 0 328 -141q-27 121 -92.5 232t-157.5 198l-201 -117l-47 84l170 97q-117 83 -245 112l38 92q183 -37 322 -137l176 101l43 -84l-139 -80q147 -136 218 -325.5t71 -414.5q0 -295 -138 -472t-358 -177 q-218 0 -341.5 144.5t-123.5 377.5zM258 487q0 -189 78 -294t229 -105q157 0 244.5 120.5t87.5 315.5q0 175 -84.5 261.5t-243.5 86.5q-160 0 -235.5 -94.5t-75.5 -290.5z" />
<glyph unicode="&#xf1;" horiz-adv-x="1110" d="M135 983h101q13 -33 24 -113q105 75 192.5 110.5t188.5 35.5q138 0 222.5 -89.5t84.5 -273.5v-653h-141v631q0 134 -62.5 194t-169.5 60q-64 0 -137 -22.5t-129 -61.5v-801h-141v758q0 112 -33 225zM135 1214q14 105 60 169.5t118 64.5q39 0 80.5 -20t72 -43.5 t66.5 -43.5t64 -20q76 0 96 121l72 -6q-12 -110 -60 -170t-114 -60q-37 0 -76.5 20t-68 43.5t-64.5 43.5t-66 20q-46 0 -71.5 -28t-34.5 -97z" />
<glyph unicode="&#xf2;" horiz-adv-x="1169" d="M92 487q0 231 137.5 380t356.5 149q222 0 356.5 -147.5t134.5 -381.5q0 -230 -137.5 -375t-355.5 -145q-221 0 -356.5 145.5t-135.5 374.5zM254 487q0 -185 91.5 -292t246.5 -107q158 0 239.5 102t81.5 293q0 192 -89.5 300t-245.5 108q-158 0 -241 -104t-83 -300z M365 1554h157l256 -415l-86 -6z" />
<glyph unicode="&#xf3;" horiz-adv-x="1169" d="M92 487q0 231 137.5 380t356.5 149q222 0 356.5 -147.5t134.5 -381.5q0 -230 -137.5 -375t-355.5 -145q-221 0 -356.5 145.5t-135.5 374.5zM254 487q0 -185 91.5 -292t246.5 -107q158 0 239.5 102t81.5 293q0 192 -89.5 300t-245.5 108q-158 0 -241 -104t-83 -300z M393 1139l256 415h158l-328 -421z" />
<glyph unicode="&#xf4;" horiz-adv-x="1169" d="M92 487q0 231 137.5 380t356.5 149q222 0 356.5 -147.5t134.5 -381.5q0 -230 -137.5 -375t-355.5 -145q-221 0 -356.5 145.5t-135.5 374.5zM254 487q0 -185 91.5 -292t246.5 -107q158 0 239.5 102t81.5 293q0 192 -89.5 300t-245.5 108q-158 0 -241 -104t-83 -300z M274 1151l248 403h131l248 -403l-88 -21l-231 308l-230 -308z" />
<glyph unicode="&#xf5;" horiz-adv-x="1169" d="M92 487q0 231 137.5 380t356.5 149q222 0 356.5 -147.5t134.5 -381.5q0 -230 -137.5 -375t-355.5 -145q-221 0 -356.5 145.5t-135.5 374.5zM254 487q0 -185 91.5 -292t246.5 -107q158 0 239.5 102t81.5 293q0 192 -89.5 300t-245.5 108q-158 0 -241 -104t-83 -300z M274 1214q14 105 60.5 169.5t118.5 64.5q39 0 80.5 -20t71.5 -43.5t66 -43.5t64 -20q76 0 96 121l72 -6q-12 -110 -60 -170t-114 -60q-37 0 -76.5 20t-67.5 43.5t-64 43.5t-66 20q-47 0 -72.5 -28t-34.5 -97z" />
<glyph unicode="&#xf6;" horiz-adv-x="1169" d="M92 487q0 231 137.5 380t356.5 149q222 0 356.5 -147.5t134.5 -381.5q0 -230 -137.5 -375t-355.5 -145q-221 0 -356.5 145.5t-135.5 374.5zM254 487q0 -185 91.5 -292t246.5 -107q158 0 239.5 102t81.5 293q0 192 -89.5 300t-245.5 108q-158 0 -241 -104t-83 -300z M291 1311q0 42 27 68t67 26q39 0 64.5 -26t25.5 -68q0 -43 -26 -71t-64 -28q-40 0 -67 28t-27 71zM702 1311q0 42 27 68t68 26q38 0 64 -26t26 -68t-26.5 -70.5t-63.5 -28.5q-40 0 -67.5 28.5t-27.5 70.5z" />
<glyph unicode="&#xf7;" d="M111 487v111h931v-111h-931zM471 180q0 44 31.5 75.5t75.5 31.5q46 0 78 -31.5t32 -75.5q0 -46 -32 -77t-78 -31q-44 0 -75.5 31t-31.5 77zM471 909q0 44 31.5 75.5t75.5 31.5q46 0 78 -31.5t32 -75.5q0 -46 -32 -77t-78 -31q-44 0 -75.5 31.5t-31.5 76.5z" />
<glyph unicode="&#xf8;" horiz-adv-x="1169" d="M92 487q0 231 137.5 380t356.5 149q123 0 219 -47l94 161l86 -43l-98 -167q91 -71 140.5 -182.5t49.5 -250.5q0 -230 -137.5 -375t-355.5 -145q-128 0 -224 47l-88 -151l-86 41l95 162q-90 70 -139.5 178.5t-49.5 242.5zM254 487q0 -193 98 -299l385 666q-67 37 -159 37 q-158 0 -241 -104t-83 -300zM426 127q68 -39 166 -39q158 0 239.5 102t81.5 293q0 199 -100 310z" />
<glyph unicode="&#xf9;" horiz-adv-x="1110" d="M158 330v653h141v-631q0 -254 231 -254q65 0 138 22.5t129 61.5v801h141v-758q0 -112 33 -225h-101q-13 33 -24 113q-105 -75 -192.5 -110.5t-188.5 -35.5q-138 0 -222.5 89.5t-84.5 273.5zM297 1554h158l256 -415l-86 -6z" />
<glyph unicode="&#xfa;" horiz-adv-x="1110" d="M158 330v653h141v-631q0 -254 231 -254q65 0 138 22.5t129 61.5v801h141v-758q0 -112 33 -225h-101q-13 33 -24 113q-105 -75 -192.5 -110.5t-188.5 -35.5q-138 0 -222.5 89.5t-84.5 273.5zM408 1139l256 415h157l-327 -421z" />
<glyph unicode="&#xfb;" horiz-adv-x="1110" d="M158 330v653h141v-631q0 -254 231 -254q65 0 138 22.5t129 61.5v801h141v-758q0 -112 33 -225h-101q-13 33 -24 113q-105 -75 -192.5 -110.5t-188.5 -35.5q-138 0 -222.5 89.5t-84.5 273.5zM248 1151l248 403h131l247 -403l-88 -21l-231 308l-229 -308z" />
<glyph unicode="&#xfc;" horiz-adv-x="1110" d="M158 330v653h141v-631q0 -254 231 -254q65 0 138 22.5t129 61.5v801h141v-758q0 -112 33 -225h-101q-13 33 -24 113q-105 -75 -192.5 -110.5t-188.5 -35.5q-138 0 -222.5 89.5t-84.5 273.5zM264 1311q0 42 27 68t67 26q39 0 65 -26t26 -68t-26.5 -70.5t-64.5 -28.5 q-40 0 -67 28t-27 71zM676 1311q0 42 27 68t67 26q38 0 64 -26t26 -68t-26.5 -70.5t-63.5 -28.5q-40 0 -67 28t-27 71z" />
<glyph unicode="&#xfd;" horiz-adv-x="942" d="M25 983h168q197 -501 276 -801q75 190 155.5 418.5t123.5 382.5h151q-201 -596 -575 -1448h-160q61 136 227 475q-62 208 -168.5 495t-197.5 478zM375 1139l256 415h157l-327 -421z" />
<glyph unicode="&#xfe;" horiz-adv-x="1202" d="M168 -465q10 124 16 788.5t6 1212.5l164 14q-13 -251 -26 -671q84 67 165 102t191 35q105 0 188.5 -38.5t135.5 -105.5t79 -153t27 -184q0 -109 -32 -209.5t-91.5 -181t-155.5 -129t-214 -48.5q-175 0 -295 129v-561h-158zM328 446q0 -177 77 -270.5t218 -93.5 q149 0 240 113.5t91 304.5q0 177 -78.5 278t-242.5 101q-89 0 -169.5 -33t-135.5 -86v-314z" />
<glyph unicode="&#xff;" horiz-adv-x="942" d="M25 983h168q197 -501 276 -801q75 190 155.5 418.5t123.5 382.5h151q-201 -596 -575 -1448h-160q61 136 227 475q-62 208 -168.5 495t-197.5 478zM178 1311q0 42 27 68t67 26q39 0 64.5 -26t25.5 -68q0 -43 -26 -71t-64 -28q-40 0 -67 28t-27 71zM590 1311q0 42 27 68 t67 26q38 0 64 -26t26 -68t-26.5 -70.5t-63.5 -28.5q-40 0 -67 28t-27 71z" />
<glyph unicode="&#x152;" horiz-adv-x="2373" d="M139 711q0 154 61 295t164.5 244t248.5 164t305 61q132 0 253 -41h1027v-158q-121 15 -781 20q225 -213 250 -514q322 0 451 11v-127q-163 7 -453 10q-25 -317 -264 -537q638 5 870 21l-26 -160h-1108q-119 -33 -226 -33q-161 0 -304 57.5t-245.5 156.5t-162.5 237 t-60 293zM317 719q0 -129 48.5 -243.5t130 -195.5t193 -127.5t233.5 -46.5q121 0 229.5 46.5t187 127.5t124.5 195t46 244q0 174 -82 316.5t-219.5 222t-300.5 79.5t-298 -79.5t-213.5 -221.5t-78.5 -317z" />
<glyph unicode="&#x153;" horiz-adv-x="1832" d="M92 487q0 231 137.5 380t356.5 149q146 0 251 -67t162 -187q68 120 184.5 187t258.5 67q149 0 234 -83t85 -204q0 -112 -53 -182l-635 20q-10 -65 -10 -118q0 -155 92 -244.5t242 -89.5q193 0 311 67v-86q-61 -60 -150 -94.5t-180 -34.5q-137 0 -240.5 54.5t-160.5 156.5 q-61 -100 -161.5 -155.5t-231.5 -55.5q-221 0 -356.5 145.5t-135.5 374.5zM254 487q0 -185 91.5 -292t246.5 -107q158 0 239.5 102t81.5 293q0 192 -89.5 300t-245.5 108q-158 0 -241 -104t-83 -300zM1096 668h520q6 229 -207 229q-101 0 -184.5 -59.5t-128.5 -169.5z" />
<glyph unicode="&#x178;" horiz-adv-x="1251" d="M20 1434h203q173 -232 416 -627q229 373 418 627h174q-151 -201 -333 -475.5t-185 -311.5q-6 -262 -6 -647h-154v639q0 40 -174 301.5t-359 493.5zM317 1647q0 41 28.5 69.5t68.5 28.5t67 -28.5t27 -69.5t-27 -69t-67 -28t-68.5 28t-28.5 69zM743 1647q0 41 28.5 69.5 t68.5 28.5t68 -28.5t28 -69.5t-28 -69t-68 -28t-68.5 28t-28.5 69z" />
<glyph unicode="&#x2c6;" horiz-adv-x="1019" d="M205 1151l248 403h131l247 -403l-88 -21l-231 308l-229 -308z" />
<glyph unicode="&#x2dc;" horiz-adv-x="1071" d="M207 1214q14 105 60 169.5t118 64.5q39 0 80.5 -20t72 -43.5t66.5 -43.5t64 -20q76 0 96 121l72 -6q-12 -110 -60 -170t-114 -60q-37 0 -76.5 20t-68 43.5t-64.5 43.5t-66 20q-46 0 -71.5 -28t-34.5 -97z" />
<glyph unicode="&#x2000;" horiz-adv-x="941" />
<glyph unicode="&#x2001;" horiz-adv-x="1882" />
<glyph unicode="&#x2002;" horiz-adv-x="941" />
<glyph unicode="&#x2003;" horiz-adv-x="1882" />
<glyph unicode="&#x2004;" horiz-adv-x="627" />
<glyph unicode="&#x2005;" horiz-adv-x="470" />
<glyph unicode="&#x2006;" horiz-adv-x="313" />
<glyph unicode="&#x2007;" horiz-adv-x="313" />
<glyph unicode="&#x2008;" horiz-adv-x="235" />
<glyph unicode="&#x2009;" horiz-adv-x="376" />
<glyph unicode="&#x200a;" horiz-adv-x="104" />
<glyph unicode="&#x2010;" horiz-adv-x="743" d="M145 483v146h465v-146h-465z" />
<glyph unicode="&#x2011;" horiz-adv-x="743" d="M145 483v146h465v-146h-465z" />
<glyph unicode="&#x2012;" horiz-adv-x="743" d="M145 483v146h465v-146h-465z" />
<glyph unicode="&#x2013;" horiz-adv-x="1241" d="M100 428v123h1063v-123h-1063z" />
<glyph unicode="&#x2014;" horiz-adv-x="2080" d="M92 428v123h1942v-123h-1942z" />
<glyph unicode="&#x2018;" horiz-adv-x="612" d="M164 1049q99 350 207 579l69 -20q-84 -277 -104 -559h-172z" />
<glyph unicode="&#x2019;" horiz-adv-x="612" d="M164 967q86 285 106 559h174q-97 -345 -211 -580z" />
<glyph unicode="&#x201a;" horiz-adv-x="612" d="M168 -344q88 295 111 563h174q-77 -273 -224 -577z" />
<glyph unicode="&#x201c;" horiz-adv-x="985" d="M166 1051q99 350 207 579l69 -20q-84 -277 -104 -559h-172zM551 1051q97 342 211 579l69 -20q-86 -285 -106 -559h-174z" />
<glyph unicode="&#x201d;" horiz-adv-x="985" d="M164 967q86 285 106 559h174q-97 -345 -211 -580zM553 967q84 277 104 559h172q-101 -357 -206 -580z" />
<glyph unicode="&#x201e;" horiz-adv-x="985" d="M158 -360q95 318 116 563h175q-85 -300 -216 -578zM528 -360q97 322 117 563h174q-86 -305 -215 -578z" />
<glyph unicode="&#x2022;" horiz-adv-x="1193" d="M240 565q0 153 107.5 260t260.5 107t260 -107t107 -260q0 -152 -107.5 -259t-259.5 -107t-260 107t-108 259z" />
<glyph unicode="&#x202f;" horiz-adv-x="376" />
<glyph unicode="&#x2039;" horiz-adv-x="950" d="M150 424v102l638 385l25 -65l-451 -371l451 -371l-25 -69z" />
<glyph unicode="&#x203a;" horiz-adv-x="950" d="M154 102l450 371l-450 371l24 71l639 -391v-102l-639 -385z" />
<glyph unicode="&#x205f;" horiz-adv-x="470" />
<glyph unicode="&#x20ac;" d="M137 690q0 169 53.5 316t146.5 249.5t221 161t273 58.5q138 0 252 -31v-178q-102 59 -278 59q-367 0 -459 -379h524l-16 -102h-526q-13 -66 -13 -142q0 -53 7 -110h485l-16 -105h-451q38 -183 148 -278.5t305 -95.5q174 0 299 73q-1 -24 -4.5 -54.5t-4.5 -53.5 q-119 -113 -317 -113q-151 0 -271 53.5t-198 150t-119 229t-41 292.5z" />
<glyph unicode="&#x25fc;" horiz-adv-x="983" d="M0 0v983h983v-983h-983z" />
</font>
</defs>
</svg>
